<?xml version="1.0" encoding="UTF-8"?>
<svg version="1.1" xmlns="http://www.w3.org/2000/svg" width="736" height="736">
<path d="M0 0 C242.88 0 485.76 0 736 0 C736 242.88 736 485.76 736 736 C493.12 736 250.24 736 0 736 C0 493.12 0 250.24 0 0 Z " fill="#000000" transform="translate(0,0)"/>
<path d="M0 0 C1.13205872 -0.01178284 1.13205872 -0.01178284 2.2869873 -0.02380371 C20.70594557 -0.17366582 20.70594557 -0.17366582 28.4375 5.625 C30.98945589 9.13393935 31.4375 11.02577909 31.4375 15.375 C29.94477574 24.33134558 25.27437913 32.85478779 21.50927734 41.0390625 C20.490102 43.26035401 19.48788183 45.48859786 18.48828125 47.71875 C5.95482225 75.37143122 -11.91969408 100.5459899 -32.33203125 122.92578125 C-33.77988895 124.51563551 -35.21560643 126.11666323 -36.63671875 127.73046875 C-45.63868391 137.93047733 -55.10120635 147.7303993 -65.79296875 156.16796875 C-68.3513857 158.20676364 -70.82470109 160.31261388 -73.29516602 162.45532227 C-83.35247184 171.14912832 -94.27885904 178.3578881 -105.5625 185.375 C-107.17511719 186.38240234 -107.17511719 186.38240234 -108.8203125 187.41015625 C-126.48703271 198.375 -126.48703271 198.375 -129.5625 198.375 C-129.74256592 199.36173706 -129.74256592 199.36173706 -129.92626953 200.3684082 C-141.56637663 263.32682379 -141.56637663 263.32682379 -164.3125 280.0625 C-177.88750589 289.03754154 -192.28674633 291.30575604 -208.16796875 292.90234375 C-212.09410314 293.30408377 -215.97686984 293.87994148 -219.875 294.5 C-236.41490931 296.86284419 -236.41490931 296.86284419 -241.63671875 294.39453125 C-245.06184518 291.69921384 -247.15107184 288.51521761 -247.96875 284.26171875 C-248.14726054 280.07415894 -247.93861006 277.19895883 -245.25 273.875 C-242.48418342 271.01785928 -239.39263993 268.67760107 -236.25 266.25 C-225.36143094 257.50951599 -217.59303384 244.52040961 -215.75 230.5625 C-215.688125 229.510625 -215.62625 228.45875 -215.5625 227.375 C-216.696875 227.87 -217.83125 228.365 -219 228.875 C-223.56689009 230.54227733 -227.74833489 231.45229569 -232.5625 230.375 C-234.80955315 229.0170686 -236.69427079 227.54436101 -238.640625 225.78515625 C-241.03164739 224.03076787 -242.61195802 223.65701536 -245.5625 223.375 C-248.01336115 224.30071057 -248.01336115 224.30071057 -250.35546875 225.8671875 C-251.23267578 226.40730469 -252.10988281 226.94742188 -253.01367188 227.50390625 C-253.91666016 228.08011719 -254.81964844 228.65632812 -255.75 229.25 C-257.55592541 230.37249909 -259.36191196 231.49489981 -261.16796875 232.6171875 C-261.96356201 233.1210498 -262.75915527 233.62491211 -263.57885742 234.14404297 C-265.5625 235.375 -265.5625 235.375 -267.5625 236.375 C-266.93682129 236.51599121 -266.31114258 236.65698242 -265.66650391 236.80224609 C-262.83839943 237.44396986 -260.01298327 238.09683634 -257.1875 238.75 C-256.20265625 238.97171875 -255.2178125 239.1934375 -254.203125 239.421875 C-253.26210938 239.64101563 -252.32109375 239.86015625 -251.3515625 240.0859375 C-250.04759521 240.38443604 -250.04759521 240.38443604 -248.71728516 240.68896484 C-246.5625 241.375 -246.5625 241.375 -244.5625 243.375 C-245.73006836 243.81779297 -246.89763672 244.26058594 -248.10058594 244.71679688 C-252.53714496 246.3998876 -256.97279264 248.08536952 -261.40820312 249.77148438 C-263.3083556 250.49346564 -265.20873723 251.21484414 -267.109375 251.93554688 C-277.93233316 256.04001618 -288.71976637 260.21497408 -299.45671082 264.53965759 C-305.76662175 267.07446797 -312.1146993 269.48811839 -318.48876953 271.85595703 C-325.51258158 274.46665937 -332.50367757 277.1640965 -339.49829102 279.85180664 C-341.99356981 280.81003071 -344.48993987 281.76537384 -346.98632812 282.72070312 C-354.92848709 285.76789183 -362.83723293 288.8726857 -370.69140625 292.140625 C-376.42318899 294.52466144 -382.16909968 296.73699863 -388.0625 298.6875 C-398.12669627 302.11504434 -407.96870992 306.0513436 -417.8203125 310.04296875 C-419.25745605 310.62377197 -419.25745605 310.62377197 -420.72363281 311.21630859 C-422.63962288 311.99832518 -424.55038445 312.79325887 -426.45605469 313.60009766 C-427.80425293 314.16349854 -427.80425293 314.16349854 -429.1796875 314.73828125 C-429.97745605 315.07770752 -430.77522461 315.41713379 -431.59716797 315.7668457 C-433.5625 316.375 -433.5625 316.375 -435.5625 315.375 C-424.84843798 308.36803152 -414.03738882 301.53923076 -403.140625 294.8203125 C-397.32954301 291.23619505 -391.53812563 287.62104313 -385.75 284 C-384.7489624 283.37383789 -383.7479248 282.74767578 -382.71655273 282.10253906 C-380.68123813 280.8292246 -378.64600071 279.55578674 -376.61083984 278.28222656 C-371.59591404 275.14458437 -366.57912275 272.00992802 -361.5625 268.875 C-359.59374084 267.64454591 -357.62499088 266.4140771 -355.65625 265.18359375 C-351.91967773 262.84823608 -348.18310547 260.51287842 -344.4465332 258.17752075 C-343.87636475 257.82116547 -343.30619629 257.46481018 -342.71875 257.09765625 C-338.46875 254.44140625 -334.21875 251.78515625 -329.96875 249.12890625 C-329.11603516 248.59595947 -328.26332031 248.0630127 -327.38476562 247.51391602 C-326.78341797 247.13807373 -326.18207031 246.76223145 -325.5625 246.375 C-330.7816887 244.01146302 -335.99219363 242.24969701 -341.5 240.6875 C-342.27923828 240.46255859 -343.05847656 240.23761719 -343.86132812 240.00585938 C-345.76056614 239.45822633 -347.66137345 238.91604051 -349.5625 238.375 C-345.57845045 233.98939605 -341.28051279 231.16914493 -336.1875 228.1875 C-330.50975308 224.79340566 -324.90754061 221.34499931 -319.4375 217.625 C-311.94428604 212.54828558 -304.26610833 207.77990293 -296.57714844 203.0065918 C-289.50615509 198.61106396 -282.49447993 194.13644516 -275.56298828 189.52368164 C-270.7767016 186.375 -270.7767016 186.375 -268.5625 186.375 C-268.86285156 185.67375 -269.16320312 184.9725 -269.47265625 184.25 C-271.95514631 178.05639767 -273.47701029 173.86306264 -271.5625 167.375 C-270.5912834 165.92584348 -269.56410354 164.51305894 -268.4921875 163.13671875 C-267.67210205 162.07457153 -267.67210205 162.07457153 -266.83544922 160.9909668 C-266.41537598 160.45769775 -265.99530273 159.92442871 -265.5625 159.375 C-268.89575754 159.31625224 -272.22887938 159.28115533 -275.5625 159.25 C-276.96435547 159.22486328 -276.96435547 159.22486328 -278.39453125 159.19921875 C-287.63264097 159.13461658 -294.42749741 160.9759459 -302.5625 165.25 C-303.89583333 165.93489583 -305.22916667 166.61979167 -306.5625 167.3046875 C-308.6166713 168.36655317 -310.66936941 169.43088528 -312.71850586 170.50244141 C-313.76856812 171.04263916 -313.76856812 171.04263916 -314.83984375 171.59375 C-315.78331665 172.08391602 -315.78331665 172.08391602 -316.74584961 172.58398438 C-319.94917281 173.97879249 -322.14888516 173.99565724 -325.5625 173.375 C-328.82574512 171.23858403 -331.80022259 168.89955481 -333.5625 165.375 C-336.43820841 150.1468168 -323.29827927 132.50278873 -315.26708984 120.42724609 C-312.46921687 116.329716 -309.54320356 112.34110063 -306.5625 108.375 C-305.86125 107.42496094 -305.16 106.47492188 -304.4375 105.49609375 C-296.12698177 94.60477005 -284.31560987 86.60523403 -270.5625 84.375 C-266.55878749 84.04911642 -262.57829856 83.99520108 -258.5625 84 C-257.43416748 83.99871094 -256.30583496 83.99742187 -255.14331055 83.99609375 C-245.06783319 84.1195557 -235.4512136 85.57451498 -225.58203125 87.5 C-221.45429322 88.27181283 -217.75389038 88.76794285 -213.5625 88.375 C-210.74918622 85.97916349 -210.74918622 85.97916349 -208.5625 83.375 C-207.9025 83.375 -207.2425 83.375 -206.5625 83.375 C-206.5625 82.715 -206.5625 82.055 -206.5625 81.375 C-205.26953125 80.03515625 -205.26953125 80.03515625 -203.375 78.4375 C-202.63636719 77.81230469 -201.89773438 77.18710937 -201.13671875 76.54296875 C-200.28722656 75.82753906 -199.43773437 75.11210937 -198.5625 74.375 C-197.64082031 73.56675781 -196.71914063 72.75851562 -195.76953125 71.92578125 C-182.95575209 60.74205285 -169.16896841 50.84914358 -154.39257812 42.42675781 C-152.56551047 41.37673014 -150.75897282 40.29697867 -148.953125 39.2109375 C-117.28565068 20.4459514 -80.87677641 8.59990172 -44.5625 3.375 C-43.5832959 3.22546875 -42.6040918 3.0759375 -41.59521484 2.921875 C-27.73224784 0.84254198 -13.99783128 0.07231568 0 0 Z " fill="#040202" transform="translate(556.5625,202.625)"/>
<path d="M0 0 C1.13205872 -0.01178284 1.13205872 -0.01178284 2.2869873 -0.02380371 C20.70594557 -0.17366582 20.70594557 -0.17366582 28.4375 5.625 C30.98945589 9.13393935 31.4375 11.02577909 31.4375 15.375 C29.94477574 24.33134558 25.27437913 32.85478779 21.50927734 41.0390625 C20.490102 43.26035401 19.48788183 45.48859786 18.48828125 47.71875 C5.95482225 75.37143122 -11.91969408 100.5459899 -32.33203125 122.92578125 C-33.77988895 124.51563551 -35.21560643 126.11666323 -36.63671875 127.73046875 C-45.63868391 137.93047733 -55.10120635 147.7303993 -65.79296875 156.16796875 C-68.3513857 158.20676364 -70.82470109 160.31261388 -73.29516602 162.45532227 C-83.35247184 171.14912832 -94.27885904 178.3578881 -105.5625 185.375 C-107.17511719 186.38240234 -107.17511719 186.38240234 -108.8203125 187.41015625 C-126.48703271 198.375 -126.48703271 198.375 -129.5625 198.375 C-129.74256592 199.36173706 -129.74256592 199.36173706 -129.92626953 200.3684082 C-141.56637663 263.32682379 -141.56637663 263.32682379 -164.3125 280.0625 C-177.88750589 289.03754154 -192.28674633 291.30575604 -208.16796875 292.90234375 C-212.09410314 293.30408377 -215.97686984 293.87994148 -219.875 294.5 C-236.41490931 296.86284419 -236.41490931 296.86284419 -241.63671875 294.39453125 C-245.06184518 291.69921384 -247.15107184 288.51521761 -247.96875 284.26171875 C-248.14726054 280.07415894 -247.93861006 277.19895883 -245.25 273.875 C-242.48418342 271.01785928 -239.39263993 268.67760107 -236.25 266.25 C-225.36143094 257.50951599 -217.59303384 244.52040961 -215.75 230.5625 C-215.688125 229.510625 -215.62625 228.45875 -215.5625 227.375 C-216.696875 227.87 -217.83125 228.365 -219 228.875 C-223.56689009 230.54227733 -227.74833489 231.45229569 -232.5625 230.375 C-234.80955315 229.0170686 -236.69427079 227.54436101 -238.640625 225.78515625 C-241.03164739 224.03076787 -242.61195802 223.65701536 -245.5625 223.375 C-248.01336115 224.30071057 -248.01336115 224.30071057 -250.35546875 225.8671875 C-251.23267578 226.40730469 -252.10988281 226.94742188 -253.01367188 227.50390625 C-253.91666016 228.08011719 -254.81964844 228.65632812 -255.75 229.25 C-257.55592541 230.37249909 -259.36191196 231.49489981 -261.16796875 232.6171875 C-261.96356201 233.1210498 -262.75915527 233.62491211 -263.57885742 234.14404297 C-265.5625 235.375 -265.5625 235.375 -267.5625 236.375 C-266.93682129 236.51599121 -266.31114258 236.65698242 -265.66650391 236.80224609 C-262.83839943 237.44396986 -260.01298327 238.09683634 -257.1875 238.75 C-256.20265625 238.97171875 -255.2178125 239.1934375 -254.203125 239.421875 C-253.26210938 239.64101563 -252.32109375 239.86015625 -251.3515625 240.0859375 C-250.04759521 240.38443604 -250.04759521 240.38443604 -248.71728516 240.68896484 C-246.5625 241.375 -246.5625 241.375 -244.5625 243.375 C-245.73006836 243.81779297 -246.89763672 244.26058594 -248.10058594 244.71679688 C-252.53714496 246.3998876 -256.97279264 248.08536952 -261.40820312 249.77148438 C-263.3083556 250.49346564 -265.20873723 251.21484414 -267.109375 251.93554688 C-277.93233316 256.04001618 -288.71976637 260.21497408 -299.45671082 264.53965759 C-305.76662175 267.07446797 -312.1146993 269.48811839 -318.48876953 271.85595703 C-325.51258158 274.46665937 -332.50367757 277.1640965 -339.49829102 279.85180664 C-341.99356981 280.81003071 -344.48993987 281.76537384 -346.98632812 282.72070312 C-354.92848709 285.76789183 -362.83723293 288.8726857 -370.69140625 292.140625 C-376.42318899 294.52466144 -382.16909968 296.73699863 -388.0625 298.6875 C-398.12669627 302.11504434 -407.96870992 306.0513436 -417.8203125 310.04296875 C-419.25745605 310.62377197 -419.25745605 310.62377197 -420.72363281 311.21630859 C-422.63962288 311.99832518 -424.55038445 312.79325887 -426.45605469 313.60009766 C-427.80425293 314.16349854 -427.80425293 314.16349854 -429.1796875 314.73828125 C-429.97745605 315.07770752 -430.77522461 315.41713379 -431.59716797 315.7668457 C-433.5625 316.375 -433.5625 316.375 -435.5625 315.375 C-424.84843798 308.36803152 -414.03738882 301.53923076 -403.140625 294.8203125 C-397.32954301 291.23619505 -391.53812563 287.62104313 -385.75 284 C-384.7489624 283.37383789 -383.7479248 282.74767578 -382.71655273 282.10253906 C-380.68123813 280.8292246 -378.64600071 279.55578674 -376.61083984 278.28222656 C-371.59591404 275.14458437 -366.57912275 272.00992802 -361.5625 268.875 C-359.59374084 267.64454591 -357.62499088 266.4140771 -355.65625 265.18359375 C-351.91967773 262.84823608 -348.18310547 260.51287842 -344.4465332 258.17752075 C-343.87636475 257.82116547 -343.30619629 257.46481018 -342.71875 257.09765625 C-338.46875 254.44140625 -334.21875 251.78515625 -329.96875 249.12890625 C-329.11603516 248.59595947 -328.26332031 248.0630127 -327.38476562 247.51391602 C-326.78341797 247.13807373 -326.18207031 246.76223145 -325.5625 246.375 C-330.7816887 244.01146302 -335.99219363 242.24969701 -341.5 240.6875 C-342.27923828 240.46255859 -343.05847656 240.23761719 -343.86132812 240.00585938 C-345.76056614 239.45822633 -347.66137345 238.91604051 -349.5625 238.375 C-345.57845045 233.98939605 -341.28051279 231.16914493 -336.1875 228.1875 C-330.50975308 224.79340566 -324.90754061 221.34499931 -319.4375 217.625 C-311.94428604 212.54828558 -304.26610833 207.77990293 -296.57714844 203.0065918 C-289.50615509 198.61106396 -282.49447993 194.13644516 -275.56298828 189.52368164 C-270.7767016 186.375 -270.7767016 186.375 -268.5625 186.375 C-268.86285156 185.67375 -269.16320312 184.9725 -269.47265625 184.25 C-271.95514631 178.05639767 -273.47701029 173.86306264 -271.5625 167.375 C-270.5912834 165.92584348 -269.56410354 164.51305894 -268.4921875 163.13671875 C-267.67210205 162.07457153 -267.67210205 162.07457153 -266.83544922 160.9909668 C-266.41537598 160.45769775 -265.99530273 159.92442871 -265.5625 159.375 C-268.89575754 159.31625224 -272.22887938 159.28115533 -275.5625 159.25 C-276.96435547 159.22486328 -276.96435547 159.22486328 -278.39453125 159.19921875 C-287.63264097 159.13461658 -294.42749741 160.9759459 -302.5625 165.25 C-303.89583333 165.93489583 -305.22916667 166.61979167 -306.5625 167.3046875 C-308.6166713 168.36655317 -310.66936941 169.43088528 -312.71850586 170.50244141 C-313.76856812 171.04263916 -313.76856812 171.04263916 -314.83984375 171.59375 C-315.78331665 172.08391602 -315.78331665 172.08391602 -316.74584961 172.58398438 C-319.94917281 173.97879249 -322.14888516 173.99565724 -325.5625 173.375 C-328.82574512 171.23858403 -331.80022259 168.89955481 -333.5625 165.375 C-336.43820841 150.1468168 -323.29827927 132.50278873 -315.26708984 120.42724609 C-312.46921687 116.329716 -309.54320356 112.34110063 -306.5625 108.375 C-305.86125 107.42496094 -305.16 106.47492188 -304.4375 105.49609375 C-296.12698177 94.60477005 -284.31560987 86.60523403 -270.5625 84.375 C-266.55878749 84.04911642 -262.57829856 83.99520108 -258.5625 84 C-257.43416748 83.99871094 -256.30583496 83.99742187 -255.14331055 83.99609375 C-245.06783319 84.1195557 -235.4512136 85.57451498 -225.58203125 87.5 C-221.45429322 88.27181283 -217.75389038 88.76794285 -213.5625 88.375 C-210.74918622 85.97916349 -210.74918622 85.97916349 -208.5625 83.375 C-207.9025 83.375 -207.2425 83.375 -206.5625 83.375 C-206.5625 82.715 -206.5625 82.055 -206.5625 81.375 C-205.26953125 80.03515625 -205.26953125 80.03515625 -203.375 78.4375 C-202.63636719 77.81230469 -201.89773438 77.18710937 -201.13671875 76.54296875 C-200.28722656 75.82753906 -199.43773437 75.11210937 -198.5625 74.375 C-197.64082031 73.56675781 -196.71914063 72.75851562 -195.76953125 71.92578125 C-182.95575209 60.74205285 -169.16896841 50.84914358 -154.39257812 42.42675781 C-152.56551047 41.37673014 -150.75897282 40.29697867 -148.953125 39.2109375 C-117.28565068 20.4459514 -80.87677641 8.59990172 -44.5625 3.375 C-43.5832959 3.22546875 -42.6040918 3.0759375 -41.59521484 2.921875 C-27.73224784 0.84254198 -13.99783128 0.07231568 0 0 Z M-36.5625 9.375 C-37.66561523 9.52565918 -38.76873047 9.67631836 -39.90527344 9.83154297 C-76.74065402 15.00639198 -111.01151575 26.47417502 -143.5625 44.375 C-144.51914551 44.89296143 -144.51914551 44.89296143 -145.49511719 45.42138672 C-163.57453179 55.22212712 -179.81457222 67.62639061 -195.375 81 C-196.01026611 81.54398437 -196.64553223 82.08796875 -197.30004883 82.6484375 C-200.93724336 85.81063419 -204.14122631 89.10953608 -207.3125 92.75 C-209.71767588 95.22764822 -210.83218767 96.26856198 -214.26953125 96.76953125 C-217.1510256 96.56061306 -219.76529701 96.08900076 -222.5625 95.375 C-224.3878125 94.9109375 -224.3878125 94.9109375 -226.25 94.4375 C-227.21099609 94.18033203 -227.21099609 94.18033203 -228.19140625 93.91796875 C-247.52004391 89.49180626 -269.64878937 88.37653452 -287.25 98.375 C-303.54064905 109.51874833 -315.05420354 131.84654878 -323.5 149.1875 C-323.80703857 149.79787109 -324.11407715 150.40824219 -324.43041992 151.03710938 C-326.44181089 155.29993625 -326.94268479 158.69181462 -326.5625 163.375 C-325.66492444 165.52280077 -325.66492444 165.52280077 -323.5625 166.375 C-317.78672416 166.49051552 -314.62793426 164.26313036 -310.015625 161 C-299.83199659 154.25415698 -289.28089576 152.00136844 -277.25 152.125 C-276.33516846 152.12886719 -275.42033691 152.13273438 -274.4777832 152.13671875 C-267.66987059 152.22346677 -261.2109618 152.8333277 -254.5625 154.375 C-255.60437276 160.62623656 -258.01813008 163.11617516 -262.98046875 166.9921875 C-265.11793434 170.21158012 -264.77250769 172.19796445 -264.16967773 175.93115234 C-263.12717275 180.12716155 -261.41289978 183.88584754 -259.5 187.75 C-259.0973291 188.57927002 -258.6946582 189.40854004 -258.27978516 190.26293945 C-254.99062194 196.86642818 -251.28137827 202.68315714 -246.5625 208.375 C-245.98886719 209.09816406 -245.41523438 209.82132813 -244.82421875 210.56640625 C-237.87795076 219.18028397 -237.87795076 219.18028397 -228.26953125 223.7265625 C-223.5224536 223.38340026 -219.64572067 221.72061225 -215.58203125 219.3125 C-212.96338171 218.09687932 -210.40963069 217.76159766 -207.5625 217.375 C-209.53369393 239.03219647 -214.88207155 256.51221405 -231.80859375 271.234375 C-232.63302979 271.95753906 -232.63302979 271.95753906 -233.47412109 272.6953125 C-234.55233405 273.62906214 -235.64478238 274.54668964 -236.75244141 275.4453125 C-239.42295383 277.73804512 -240.49919586 278.99798865 -241.08984375 282.515625 C-240.50486317 285.68751967 -240.03239695 286.42747206 -237.5625 288.375 C-229.35888116 289.0305994 -221.1355486 287.65961771 -213 286.625 C-211.93143265 286.49061523 -211.93143265 286.49061523 -210.84127808 286.35351562 C-191.18236623 283.85598609 -171.5621343 281.08022778 -158.5 264.625 C-150.6141978 253.06228607 -146.44309657 239.76819269 -142.8125 226.375 C-142.50892578 225.26874268 -142.20535156 224.16248535 -141.89257812 223.02270508 C-140.56276273 217.97825715 -139.43796071 213.11941019 -139.01171875 207.9140625 C-137.9500137 196.47099439 -137.9500137 196.47099439 -133.58300781 192.63720703 C-128.22648846 189.08962124 -122.40540424 186.51926723 -116.57714844 183.85253906 C-111.69245167 181.45845218 -107.23970582 178.49549362 -102.75 175.4375 C-101.44953735 174.55626465 -101.44953735 174.55626465 -100.12280273 173.65722656 C-81.93376169 161.18454515 -65.3326103 147.27995176 -49.6875 131.75 C-48.81963867 130.89148438 -47.95177734 130.03296875 -47.05761719 129.1484375 C-41.92269572 123.98794959 -37.1991421 118.63996481 -32.65039062 112.95703125 C-30.78856431 110.6545669 -28.87204371 108.43299767 -26.8984375 106.2265625 C-23.3903774 102.25399242 -20.26462078 98.06154713 -17.1875 93.75 C-16.33961914 92.56398193 -16.33961914 92.56398193 -15.47460938 91.35400391 C12.14796988 53.84803007 12.14796988 53.84803007 23.4375 10.375 C18.88391 7.74557228 15.61012363 6.99889074 10.37109375 7.01171875 C9.37104813 7.00954346 9.37104813 7.00954346 8.35079956 7.00732422 C6.19172783 7.00857602 4.03386871 7.03372701 1.875 7.0625 C1.13253021 7.0684317 0.39006042 7.0743634 -0.37490845 7.08047485 C-12.52951944 7.17914118 -24.51417058 7.67907798 -36.5625 9.375 Z " fill="#C49C69" transform="translate(556.5625,202.625)"/>
<path d="M0 0 C-1.54623276 4.26019339 -3.66521881 8.07117881 -6 11.9375 C-6.39590332 12.59355225 -6.79180664 13.24960449 -7.19970703 13.92553711 C-11.45280965 20.87538354 -16.11620265 27.48213631 -21 34 C-21.42506836 34.57073242 -21.85013672 35.14146484 -22.28808594 35.72949219 C-28.6351024 44.19695659 -35.54024488 51.98122113 -42.83203125 59.64453125 C-45.28158194 62.22010384 -47.6386615 64.85038717 -49.9375 67.5625 C-57.98625887 76.76108156 -57.98625887 76.76108156 -63.6875 77.4375 C-67.3599249 75.84380617 -67.5725348 75.52266712 -69.0625 72.0625 C-69.52076172 70.84626953 -69.52076172 70.84626953 -69.98828125 69.60546875 C-73.93829897 59.43302929 -80.31843532 52.32391665 -89.8125 47.0625 C-99.50635713 42.99864067 -111.94259968 43.34014594 -121.6875 47.0625 C-131.7564495 52.08995317 -137.98510196 59.43177991 -142.140625 69.86328125 C-144.89584229 79.91982437 -143.44227171 90.67671369 -139 100 C-135.27869483 106.27186265 -130.44934371 110.45837832 -124.625 114.75 C-122.45807309 117.75036034 -122.43732006 120.05926788 -122.2734375 123.68359375 C-124.23736755 129.94494063 -132.88273266 133.47348298 -138.25 136.5 C-139.16185059 137.01481934 -140.07370117 137.52963867 -141.01318359 138.06005859 C-160.15199154 148.74570511 -179.4228743 157.77530732 -200.13232422 164.99121094 C-202.6343987 165.87138902 -205.11846655 166.78430195 -207.59765625 167.7265625 C-209.43650391 168.41878906 -209.43650391 168.41878906 -211.3125 169.125 C-212.29863281 169.49882812 -213.28476562 169.87265625 -214.30078125 170.2578125 C-217.41751041 171.11480026 -219.78579275 171.41331803 -223 171 C-228.1816419 166.41369568 -231.25581598 158.91249766 -234.4375 152.8125 C-234.79183105 152.14798828 -235.14616211 151.48347656 -235.51123047 150.79882812 C-237.71920712 146.38944292 -238.67619559 143.02316726 -238 138 C-236.80549863 135.43499584 -235.64681812 133.28389764 -234.125 130.9375 C-233.71862305 130.289021 -233.31224609 129.64054199 -232.89355469 128.97241211 C-226.60443189 119.06114916 -219.67466296 109.69950795 -212.3125 100.5625 C-211.52891113 99.5871228 -211.52891113 99.5871228 -210.72949219 98.59204102 C-207.52138849 94.6676087 -204.13941493 91.03672021 -200.49853516 87.50952148 C-198.84577296 85.9060966 -198.84577296 85.9060966 -197.0625 83.5 C-194.72780598 80.67006785 -192.16353544 78.43973696 -189.375 76.06640625 C-186.67825985 73.7200649 -184.09893266 71.26665516 -181.5 68.8125 C-144.74904797 34.76269881 -94.97953086 12.71739093 -46 4 C-45.12714355 3.84450684 -44.25428711 3.68901367 -43.35498047 3.52880859 C-28.82182628 0.99645476 -14.74320202 -0.16648534 0 0 Z " fill="#C89D67" transform="translate(552,221)"/>
<path d="M0 0 C5.84322654 4.03843791 11.29714249 8.89536273 13 16 C13.88426347 24.39584893 14.20654411 32.96449039 9 40 C2.16431089 47.42747138 -4.5762857 53.0665082 -14.875 53.5 C-22.68290536 53.22361397 -30.52174927 50.782598 -36 45 C-42.4175994 35.59381265 -44.05377257 28.45512765 -43 17 C-40.60776844 8.45798293 -34.5756108 2.22170507 -26.9921875 -2.16015625 C-17.99633769 -6.07535404 -8.48580913 -4.40371436 0 0 Z " fill="#C29B68" transform="translate(461,278)"/>
<path d="M0 0 C1.45792969 -0.03673828 1.45792969 -0.03673828 2.9453125 -0.07421875 C10.25169776 -0.10408136 13.46277203 1.19149482 18.875 6.0625 C21.04396379 10.52092558 20.71262511 15.12018107 19.23828125 19.78515625 C15.49522471 28.64717549 10.42789628 32.92889779 2 37.375 C-1.21050358 38.44516786 -3.61998194 38.53108229 -6.99609375 38.5859375 C-8.19556641 38.61429687 -9.39503906 38.64265625 -10.63085938 38.671875 C-13.13332811 38.72323403 -15.63594935 38.76770796 -18.13867188 38.8046875 C-29.45728984 39.09382729 -39.37186663 41.65515332 -50 45.375 C-48.5364611 39.56686762 -45.46910146 35.51796332 -41.9375 30.8125 C-40.75236343 29.21338184 -39.56877767 27.61311323 -38.38671875 26.01171875 C-37.51732666 24.83488525 -37.51732666 24.83488525 -36.63037109 23.63427734 C-34.77671758 21.06558767 -33.04852572 18.43324061 -31.32763672 15.77490234 C-23.37336973 3.59662045 -14.16489916 0.01878634 0 0 Z " fill="#C79D68" transform="translate(297,304.625)"/>
<path d="M0 0 C0.14695312 1.35544922 0.14695312 1.35544922 0.296875 2.73828125 C0.44640625 3.91777344 0.5959375 5.09726562 0.75 6.3125 C0.88921875 7.48425781 1.0284375 8.65601563 1.171875 9.86328125 C1.73900069 13.02846216 1.73900069 13.02846216 3.796875 14.89453125 C7.50322692 16.75427876 10.955409 16.52236415 15 16 C17.81694604 14.81391746 18.64874789 13.77428183 19.8984375 11.01953125 C20.66657394 9.02871893 21.36172147 7.03572168 22 5 C25.68773319 6.18534281 27.46020188 8.42998852 29.234375 11.81640625 C31.31704686 17.75627142 30.69426419 24.01916164 28.4375 29.8125 C25.78537474 35.06032233 21.93191378 38.57339766 16.671875 41.1328125 C10.97594817 42.98149051 4.19783356 43.18834963 -1.44921875 41.08984375 C-6.74620154 37.95201204 -10.60167147 33.86324414 -13.3125 28.3125 C-14.65983641 21.82078821 -15.35187905 15.52786862 -11.875 9.625 C-9.39817707 6.18849639 -4.62086349 0 0 0 Z " fill="#040202" transform="translate(438,282)"/>
<path d="M0 0 C2.97 0.495 2.97 0.495 6 1 C3.55282348 3.85563719 1.14913587 4.92649308 -2.34765625 6.234375 C-3.41902832 6.64010742 -4.49040039 7.04583984 -5.59423828 7.46386719 C-6.73876465 7.88829102 -7.88329102 8.31271484 -9.0625 8.75 C-11.43631573 9.64552109 -13.81001326 10.54135558 -16.18359375 11.4375 C-17.34874512 11.87449219 -18.51389648 12.31148438 -19.71435547 12.76171875 C-24.03204757 14.38895418 -28.32965564 16.06488115 -32.625 17.75 C-38.64110301 20.09822521 -44.67401693 22.3962609 -50.72607422 24.65014648 C-54.66753455 26.11950331 -58.60024496 27.60981625 -62.52734375 29.1171875 C-63.47569092 29.48078369 -64.42403809 29.84437988 -65.40112305 30.21899414 C-67.26659831 30.93503354 -69.13137333 31.65290057 -70.99536133 32.37280273 C-72.27382935 32.8630896 -72.27382935 32.8630896 -73.578125 33.36328125 C-74.71362793 33.80087769 -74.71362793 33.80087769 -75.87207031 34.24731445 C-77.89871012 34.96417202 -79.9066211 35.51698099 -82 36 C-79.95360354 33.83170557 -77.92139953 32.1860318 -75.39453125 30.609375 C-74.66943359 30.15401367 -73.94433594 29.69865234 -73.19726562 29.22949219 C-72.01680664 28.49714355 -72.01680664 28.49714355 -70.8125 27.75 C-69.11066259 26.68752322 -67.40884045 25.62502197 -65.70703125 24.5625 C-64.7938916 23.99402344 -63.88075195 23.42554688 -62.93994141 22.83984375 C-59.78728887 20.86688332 -56.64886901 18.87250964 -53.51171875 16.875 C-51.34122526 15.49987463 -49.17065346 14.12487285 -47 12.75 C-45.43342651 11.74791504 -45.43342651 11.74791504 -43.83520508 10.72558594 C-42.8583374 10.10973633 -41.88146973 9.49388672 -40.875 8.859375 C-40.00617188 8.30733398 -39.13734375 7.75529297 -38.2421875 7.18652344 C-36 6 -36 6 -33 6 C-33 6.99 -33 7.98 -33 9 C-34.96722008 10.38123963 -36.96868328 11.71488126 -39 13 C-39.33 13.66 -39.66 14.32 -40 15 C-39.34 15 -38.68 15 -38 15 C-38 14.34 -38 13.68 -38 13 C-34.7 13.33 -31.4 13.66 -28 14 C-27.7763932 11.0745356 -27.7763932 11.0745356 -29 9 C-25.34600028 6.66144018 -22.24682369 6.92278502 -18 7 C-17.01 6.67 -16.02 6.34 -15 6 C-14.29875 5.87625 -13.5975 5.7525 -12.875 5.625 C-8.83160908 4.74600197 -4.80428979 3.6427615 -1 2 C-0.67 1.34 -0.34 0.68 0 0 Z " fill="#BE9B6C" transform="translate(203,483)"/>
<path d="M0 0 C3.40723218 1.39464907 4.79099749 2.76082243 6.578125 5.95703125 C7.01640625 6.74013672 7.4546875 7.52324219 7.90625 8.33007812 C8.57140625 9.55887695 8.57140625 9.55887695 9.25 10.8125 C9.70890625 11.62009766 10.1678125 12.42769531 10.640625 13.25976562 C12.94254177 17.44226618 14.27958592 20.13125657 14 25 C12.68 25.33 11.36 25.66 10 26 C4.01895234 19.87985821 -0.67885003 12.44028053 -1.1953125 3.69140625 C-1 1 -1 1 0 0 Z " fill="#C09D6F" transform="translate(304,374)"/>
<path d="M0 0 C0.33 0.99 0.66 1.98 1 3 C-0.65 3.99 -2.3 4.98 -4 6 C-3.01 6.66 -2.02 7.32 -1 8 C-2.98 8.66 -4.96 9.32 -7 10 C-6.67 11.65 -6.34 13.3 -6 15 C-4.9275 15.103125 -3.855 15.20625 -2.75 15.3125 C0.85820872 15.97400493 2.36395023 16.57483421 5 19 C1.22696625 19.98950379 -1.15461779 19.95757244 -4.86328125 18.78515625 C-6.19262695 18.37426758 -6.19262695 18.37426758 -7.54882812 17.95507812 C-8.46083984 17.66052734 -9.37285156 17.36597656 -10.3125 17.0625 C-11.24384766 16.77181641 -12.17519531 16.48113281 -13.13476562 16.18164062 C-15.42663511 15.46469684 -17.71459418 14.73723793 -20 14 C-16.15163189 9.79294904 -12.11364601 7.02062321 -7.1875 4.1875 C-6.49462891 3.78080078 -5.80175781 3.37410156 -5.08789062 2.95507812 C-3.39590948 1.96322711 -1.69850109 0.98064402 0 0 Z " fill="#C29B6B" transform="translate(227,427)"/>
<path d="M0 0 C28.35792096 -0.41277905 28.35792096 -0.41277905 39 2 C38.01 2.66 37.02 3.32 36 4 C35.34 4.66 34.68 5.32 34 6 C35.32 6.66 36.64 7.32 38 8 C37.67 8.33 37.34 8.66 37 9 C34.87339892 8.98828319 32.74698518 8.89052882 30.625 8.75 C29.46226562 8.68296875 28.29953125 8.6159375 27.1015625 8.546875 C23.905848 7.98339889 22.90282778 7.54622998 21 5 C24.69541586 4.04975021 27.30458414 4.04975021 31 5 C31 4.34 31 3.68 31 3 C20.77 2.67 10.54 2.34 0 2 C0 1.34 0 0.68 0 0 Z " fill="#B7956C" transform="translate(286,287)"/>
<path d="M0 0 C0.66 0 1.32 0 2 0 C3.625 2 3.625 2 5 4 C-4.36429993 12.132714 -4.36429993 12.132714 -11 12 C-11.99 11.34 -12.98 10.68 -14 10 C-13.34 9.67 -12.68 9.34 -12 9 C-14.64 8.67 -17.28 8.34 -20 8 C-20 7.67 -20 7.34 -20 7 C-18.69675781 6.85304688 -18.69675781 6.85304688 -17.3671875 6.703125 C-7.73116403 5.46310425 -7.73116403 5.46310425 0 0 Z " fill="#BA9970" transform="translate(462,317)"/>
<path d="M0 0 C2.15973378 3.23960066 2.75921963 5.14751405 3 9 C2.51917969 9.46664062 2.03835938 9.93328125 1.54296875 10.4140625 C-0.43488462 12.44699533 -0.38568595 13.58383193 -0.5 16.375 C-0.82612556 20.30769053 -1.43468068 22.86460972 -4 26 C-5.31377902 26.70441955 -6.64559639 27.3772536 -8 28 C-7.91253716 26.56138706 -7.80434652 25.12402492 -7.6875 23.6875 C-7.62949219 22.88699219 -7.57148437 22.08648437 -7.51171875 21.26171875 C-6.90394905 18.57546947 -5.9299073 17.88548488 -4 16 C-3.25155141 13.8028196 -3.25155141 13.8028196 -2.875 11.4375 C-2.07086614 7.14173228 -2.07086614 7.14173228 -1 5 C-0.64386903 3.33805547 -0.30791692 1.671549 0 0 Z " fill="#C79E69" transform="translate(579,223)"/>
<path d="M0 0 C-0.33 2.64 -0.66 5.28 -1 8 C-3.97 8.66 -6.94 9.32 -10 10 C-10 9.34 -10 8.68 -10 8 C-13.63 8 -17.26 8 -21 8 C-18.17678135 5.17678135 -14.74021797 4.22705463 -11.0625 2.875 C-10.33353516 2.59785156 -9.60457031 2.32070312 -8.85351562 2.03515625 C-5.78106567 0.89178807 -3.30460627 0 0 0 Z " fill="#BB9A6B" transform="translate(461,219)"/>
<path d="M0 0 C0.33 0.66 0.66 1.32 1 2 C0.67 2.66 0.34 3.32 0 4 C1.65 4 3.3 4 5 4 C2.7931245 6.2068755 1.24914975 6.81712902 -1.6484375 7.91015625 C-2.57140625 8.26013672 -3.494375 8.61011719 -4.4453125 8.97070312 C-5.41210938 9.33099609 -6.37890625 9.69128906 -7.375 10.0625 C-8.3340625 10.42666016 -9.293125 10.79082031 -10.28125 11.16601562 C-18.04806071 14.09209125 -18.04806071 14.09209125 -22 15 C-19.73690521 12.55965582 -17.37019222 10.84179783 -14.55078125 9.08203125 C-13.70322266 8.55029297 -12.85566406 8.01855469 -11.98242188 7.47070312 C-11.10134766 6.92349609 -10.22027344 6.37628906 -9.3125 5.8125 C-8.41982422 5.25369141 -7.52714844 4.69488281 -6.60742188 4.11914062 C-4.40715568 2.74250349 -2.20464271 1.36961326 0 0 Z " fill="#BC9C70" transform="translate(143,504)"/>
<path d="M0 0 C4.81970922 -0.07473903 9.63907335 -0.12887722 14.45922852 -0.16479492 C16.09535609 -0.17978456 17.73144415 -0.20018332 19.36743164 -0.22631836 C36.10216541 -0.48676127 36.10216541 -0.48676127 44 3 C43.67 3.99 43.34 4.98 43 6 C42.34 5.34 41.68 4.68 41 4 C38.56823603 3.75498505 36.24135116 3.62675079 33.8046875 3.5859375 C32.74352219 3.55688828 32.74352219 3.55688828 31.66091919 3.5272522 C29.39906915 3.46742348 27.1371683 3.42105899 24.875 3.375 C23.3424256 3.33682314 21.80987272 3.29777158 20.27734375 3.2578125 C16.51840376 3.16171961 12.75936332 3.07770151 9 3 C9 2.67 9 2.34 9 2 C6.03 1.67 3.06 1.34 0 1 C0 0.67 0 0.34 0 0 Z " fill="#B1926C" transform="translate(538,203)"/>
<path d="M0 0 C0.22429687 0.64453125 0.44859375 1.2890625 0.6796875 1.953125 C1.82889456 4.24388852 1.82889456 4.24388852 4.3828125 4.609375 C5.28773438 4.65578125 6.19265625 4.7021875 7.125 4.75 C8.03507812 4.80671875 8.94515625 4.8634375 9.8828125 4.921875 C10.58148438 4.94765625 11.28015625 4.9734375 12 5 C12 5.33 12 5.66 12 6 C1.605 6.99 1.605 6.99 -9 8 C-9 7.01 -9 6.02 -9 5 C-8.01 4.67 -7.02 4.34 -6 4 C-8.64 3.34 -11.28 2.68 -14 2 C-14 1.67 -14 1.34 -14 1 C-9.27616037 0.34843591 -4.78025483 -0.11950637 0 0 Z " fill="#B39267" transform="translate(350,488)"/>
<path d="M0 0 C5.6555181 0.60503854 11.00213991 1.62185703 16.5 3.0625 C17.59054687 3.3419043 17.59054687 3.3419043 18.703125 3.62695312 C20.46987724 4.08026455 22.23510775 4.5395002 24 5 C20.71536341 7.18975773 17.79303725 7.99806563 14 9 C14 8.34 14 7.68 14 7 C13.37351562 6.86722656 12.74703125 6.73445313 12.1015625 6.59765625 C11.28429687 6.42105469 10.46703125 6.24445313 9.625 6.0625 C8.81289063 5.88847656 8.00078125 5.71445312 7.1640625 5.53515625 C4.25190029 4.81500061 2.53775717 3.69183811 0 2 C0 1.34 0 0.68 0 0 Z " fill="#BA9B74" transform="translate(288,440)"/>
<path d="M0 0 C0 4.56351186 -1.37804004 6.36287028 -4.5625 9.625 C-5.366875 10.40875 -6.17125 11.1925 -7 12 C-7.33 12.66 -7.66 13.32 -8 14 C-8.66 14 -9.32 14 -10 14 C-10.33 15.65 -10.66 17.3 -11 19 C-11.66 19 -12.32 19 -13 19 C-13 19.66 -13 20.32 -13 21 C-13.639375 21.61875 -14.27875 22.2375 -14.9375 22.875 C-17.03417231 25.03520783 -17.58396674 26.08776721 -18 29 C-18.66 29 -19.32 29 -20 29 C-20.33 29.99 -20.66 30.98 -21 32 C-21 31.34 -21 30.68 -21 30 C-21.66 29.67 -22.32 29.34 -23 29 C-5.78640777 5.78640777 -5.78640777 5.78640777 0 0 Z " fill="#BD9F77" transform="translate(348,312)"/>
<path d="M0 0 C-1.50092774 1.66400641 -3.02672715 3.3055983 -4.5625 4.9375 C-5.40941406 5.85402344 -6.25632812 6.77054687 -7.12890625 7.71484375 C-10.53355006 10.42466229 -12.68870001 10.88801818 -17 11 C-20.22517896 8.87817174 -20.88130022 7.51436571 -21.75 3.75 C-21.8325 2.8425 -21.915 1.935 -22 1 C-19.49962266 3.17424117 -18.56371414 4.73045798 -18 8 C-17.01 8 -16.02 8 -15 8 C-14.67 7.34 -14.34 6.68 -14 6 C-14 6.66 -14 7.32 -14 8 C-12.02 7.34 -10.04 6.68 -8 6 C-8 5.34 -8 4.68 -8 4 C-8.66 3.34 -9.32 2.68 -10 2 C-9.34 1.67 -8.68 1.34 -8 1 C-7.34 1.33 -6.68 1.66 -6 2 C-6 1.34 -6 0.68 -6 0 C-3.50907189 -1.24546405 -2.58919267 -0.7767578 0 0 Z " fill="#B7986E" transform="translate(504,287)"/>
<path d="M0 0 C0.66 0.66 1.32 1.32 2 2 C0.6875 4.0625 0.6875 4.0625 -2 6 C-5.72702755 6.05898893 -9.32357303 5.58315738 -13 5 C-12.01 3.68 -11.02 2.36 -10 1 C-11.98 1 -13.96 1 -16 1 C-10.84935092 -2.43376605 -5.4690819 -3.39460256 0 0 Z " fill="#C19762" transform="translate(347,294)"/>
<path d="M0 0 C-7.4 6 -7.4 6 -11 6 C-11.33 6.99 -11.66 7.98 -12 9 C-14.29167646 11.9791794 -16.33535945 12.5047783 -20 13 C-20.33 13.99 -20.66 14.98 -21 16 C-21.66 15.34 -22.32 14.68 -23 14 C-21.45631953 9.36895859 -17.74473411 7.87111069 -13.75 5.3125 C-12.98558594 4.80138672 -12.22117187 4.29027344 -11.43359375 3.76367188 C-10.31404297 3.03954102 -10.31404297 3.03954102 -9.171875 2.30078125 C-8.4922168 1.85903564 -7.81255859 1.41729004 -7.11230469 0.9621582 C-4.60044367 -0.18199856 -2.72973992 -0.17529621 0 0 Z " fill="#BB9B6C" transform="translate(412,263)"/>
<path d="M0 0 C0.99 0.33 1.98 0.66 3 1 C3.22786458 3.01822917 3.45572917 5.03645833 3.68359375 7.0546875 C3.91292961 9.07404316 3.91292961 9.07404316 5 11 C8.61159493 12.06706214 10.35900072 12.299133 13.8125 10.6875 C16.08915626 9.18421412 16.08915626 9.18421412 17 7 C17.99 7.33 18.98 7.66 20 8 C18.63016497 11.16115776 18.0109362 11.9927092 15 14 C10.43948005 14.73446576 6.98088926 14.59262059 3 12.1875 C-0.47950566 8.38179069 -0.09342816 4.95169224 0 0 Z " fill="#BEA077" transform="translate(438,285)"/>
<path d="M0 0 C-0.66 1.32 -1.32 2.64 -2 4 C-2.99 3.67 -3.98 3.34 -5 3 C-12.61904716 2.65914789 -20.14130677 2.94333983 -27.6953125 3.9765625 C-30.34220731 4.00348007 -31.75741118 3.3538209 -34 2 C-22.60029192 0.52226006 -11.49520875 -0.28189885 0 0 Z " fill="#AC8E69" transform="translate(552,221)"/>
<path d="M0 0 C2.36574234 3.5486135 2.10865265 4.5764525 1.625 8.6875 C1.45871094 10.17830078 1.45871094 10.17830078 1.2890625 11.69921875 C1.14597656 12.83810547 1.14597656 12.83810547 1 14 C0.67 14 0.34 14 0 14 C-0.33 12.35 -0.66 10.7 -1 9 C-3.64465038 12.1254959 -4.84414715 15.08788267 -6 19 C-6.66 19 -7.32 19 -8 19 C-7.83628906 18.43796875 -7.67257812 17.8759375 -7.50390625 17.296875 C-6.97135003 14.86940944 -6.90101319 12.73110319 -6.9375 10.25 C-6.94652344 9.45078125 -6.95554687 8.6515625 -6.96484375 7.828125 C-6.97644531 7.22484375 -6.98804688 6.6215625 -7 6 C-6.01 6 -5.02 6 -4 6 C-2.66018514 5.6937566 -1.32488113 5.36548445 0 5 C0 3.35 0 1.7 0 0 Z " fill="#B59366" transform="translate(347,423)"/>
<path d="M0 0 C0.66 0.33 1.32 0.66 2 1 C1.67 1.66 1.34 2.32 1 3 C0.01 2.67 -0.98 2.34 -2 2 C-1.34 1.34 -0.68 0.68 0 0 Z M-4 3 C-3.34 3.33 -2.68 3.66 -2 4 C-2.804375 4.763125 -3.60875 5.52625 -4.4375 6.3125 C-7.16799024 8.79430898 -7.16799024 8.79430898 -8 12 C-8.99 11.67 -9.98 11.34 -11 11 C-13.05905902 12.20594512 -13.05905902 12.20594512 -15.0625 13.9375 C-18.80865604 17 -18.80865604 17 -21 17 C-21.33 17.66 -21.66 18.32 -22 19 C-22.99 18.34 -23.98 17.68 -25 17 C-24.32195312 16.57589844 -23.64390625 16.15179688 -22.9453125 15.71484375 C-16.4982657 11.65195415 -10.20265231 7.42662172 -4 3 Z " fill="#150B05" transform="translate(473,372)"/>
<path d="M0 0 C13.95738244 -0.68830927 13.95738244 -0.68830927 17.875 1.8125 C20 4 20 4 20 7 C19.278125 6.319375 18.55625 5.63875 17.8125 4.9375 C15.26333871 2.7271916 15.26333871 2.7271916 12.8125 3.25 C11.884375 3.4975 10.95625 3.745 10 4 C6.66529208 4.10773672 3.33558821 4.05829183 0 4 C0.66 3.34 1.32 2.68 2 2 C1.34 1.34 0.68 0.68 0 0 Z " fill="#C19F74" transform="translate(294,305)"/>
<path d="M0 0 C2.31 1.98 4.62 3.96 7 6 C6.67 6.66 6.34 7.32 6 8 C5.01 7.67 4.02 7.34 3 7 C2.67 7.66 2.34 8.32 2 9 C2.66 9 3.32 9 4 9 C4.33 11.31 4.66 13.62 5 16 C4.608125 15.443125 4.21625 14.88625 3.8125 14.3125 C1.7307542 11.6564795 -0.58333422 9.35135049 -3 7 C-3.33 7.99 -3.66 8.98 -4 10 C-4.33 8.35 -4.66 6.7 -5 5 C-3.68 4.67 -2.36 4.34 -1 4 C-0.67 2.68 -0.34 1.36 0 0 Z " fill="#B69569" transform="translate(463,280)"/>
<path d="M0 0 C0.33 0 0.66 0 1 0 C1.54356922 7.23249046 0.72136137 12.69813257 -3 19 C-3.66 19.66 -4.32 20.32 -5 21 C-7.0625 20.8125 -7.0625 20.8125 -9 20 C-9.33 19.01 -9.66 18.02 -10 17 C-7.66785852 15.79371992 -5.50357861 14.8345262 -3 14 C-1.5911532 9.38211328 -0.71636623 4.77577488 0 0 Z " fill="#C2A07C" transform="translate(473,299)"/>
<path d="M0 0 C2.03219488 3.40351338 2.36891039 6.3232927 2.625 10.25 C2.69976562 11.32765625 2.77453125 12.4053125 2.8515625 13.515625 C2.92503906 14.74539063 2.92503906 14.74539063 3 16 C3.66 16 4.32 16 5 16 C4.625 18.4375 4.625 18.4375 4 21 C3.34 21.33 2.68 21.66 2 22 C-0.58315518 14.35816592 -1.94361719 8.01742091 0 0 Z " fill="#C79E63" transform="translate(420,294)"/>
<path d="M0 0 C0.66 0.33 1.32 0.66 2 1 C-5 8 -5 8 -6.5 9.4375 C-8.21591626 11.13313447 -8.21591626 11.13313447 -10 14 C-11.64694485 15.68615782 -13.31126121 17.35570171 -15 19 C-15.33 18.34 -15.66 17.68 -16 17 C-11.54644784 9.88290861 -6.9371978 4.75064339 0 0 Z " fill="#1F1208" transform="translate(427,269)"/>
<path d="M0 0 C1.32 0.33 2.64 0.66 4 1 C4.3125 3.13671875 4.3125 3.13671875 4 6 C2.38587866 8.13582841 0.86238098 9.92746844 -1 11.8125 C-1.47695313 12.31458984 -1.95390625 12.81667969 -2.4453125 13.33398438 C-3.619201 14.5665673 -4.80816886 15.78475789 -6 17 C-6 13.8424015 -5.40407719 11.80815437 -4 9 C-3.01 9 -2.02 9 -1 9 C-1 8.34 -1 7.68 -1 7 C-0.34 7 0.32 7 1 7 C0.4740625 5.824375 0.4740625 5.824375 -0.0625 4.625 C-0.371875 3.75875 -0.68125 2.8925 -1 2 C-0.67 1.34 -0.34 0.68 0 0 Z " fill="#BB9C6D" transform="translate(521,257)"/>
<path d="M0 0 C0 2.64 0 5.28 0 8 C-3.75 9.125 -3.75 9.125 -6 8 C-6 7.34 -6 6.68 -6 6 C-8.31 5.67 -10.62 5.34 -13 5 C-10.54278328 3.36185552 -8.65432189 2.38047801 -5.9375 1.375 C-5.24527344 1.11460937 -4.55304688 0.85421875 -3.83984375 0.5859375 C-2 0 -2 0 0 0 Z " fill="#BE9969" transform="translate(383,480)"/>
<path d="M0 0 C0.66 0 1.32 0 2 0 C2.26554687 0.60328125 2.53109375 1.2065625 2.8046875 1.828125 C3.33449219 3.02695312 3.33449219 3.02695312 3.875 4.25 C4.22304688 5.03890625 4.57109375 5.8278125 4.9296875 6.640625 C5.90413905 8.78868608 6.92986429 10.89829202 8 13 C8.66 13 9.32 13 10 13 C11.35278115 14.98689731 12.68568305 16.98745218 14 19 C14.66 19.33 15.32 19.66 16 20 C15.67 20.66 15.34 21.32 15 22 C8.48408227 16.68055352 2.54038339 11.31398199 0 3 C0 2.01 0 1.02 0 0 Z " fill="#190903" transform="translate(410,313)"/>
<path d="M0 0 C1.53508028 2.43338652 2.03088304 3.67124507 1.7578125 6.578125 C1.54898437 7.45984375 1.34015625 8.3415625 1.125 9.25 C0.92132813 10.14203125 0.71765625 11.0340625 0.5078125 11.953125 C0.34023438 12.62859375 0.17265625 13.3040625 0 14 C-0.99 14.33 -1.98 14.66 -3 15 C-3.66 15.66 -4.32 16.32 -5 17 C-5 14.03 -5 11.06 -5 8 C-4.34 8 -3.68 8 -3 8 C-3 7.01 -3 6.02 -3 5 C-2.34 5 -1.68 5 -1 5 C-0.67 3.35 -0.34 1.7 0 0 Z " fill="#CB9F66" transform="translate(411,443)"/>
<path d="M0 0 C2 2 2 2 2.3125 5.9375 C2.21067416 9.70505618 2.21067416 9.70505618 0.75 11.75 C0.1725 12.1625 -0.405 12.575 -1 13 C-1.721875 13.721875 -2.44375 14.44375 -3.1875 15.1875 C-4.0846875 16.0846875 -4.0846875 16.0846875 -5 17 C-4.46246904 10.81839396 -2.45417612 5.673142 0 0 Z " fill="#CA9E68" transform="translate(345,430)"/>
<path d="M0 0 C0.99 0 1.98 0 3 0 C1.69432208 3.91703377 0.19905398 4.31757187 -3.375 6.25 C-4.84066406 7.06210937 -4.84066406 7.06210937 -6.3359375 7.890625 C-9 9 -9 9 -12 8 C-12 6 -12 6 -10.625 4.4375 C-8.32998895 2.40729792 -7.0131598 2.00214854 -3.9375 1.5 C-1.11880655 1.31161614 -1.11880655 1.31161614 0 0 Z " fill="#BF9E71" transform="translate(308,424)"/>
<path d="M0 0 C0.66 0.66 1.32 1.32 2 2 C1.34 2.66 0.68 3.32 0 4 C0.66 4.33 1.32 4.66 2 5 C2.66 3.35 3.32 1.7 4 0 C5.32 0.33 6.64 0.66 8 1 C7.06409496 2.1055189 6.12620142 3.20935453 5.1875 4.3125 C4.66542969 4.92738281 4.14335937 5.54226563 3.60546875 6.17578125 C2.12827531 7.85424679 0.59960869 9.43882034 -1 11 C-1.99 10.67 -2.98 10.34 -4 10 C-3.01 9.67 -2.02 9.34 -1 9 C-1.66 7.02 -2.32 5.04 -3 3 C-2.01 2.01 -1.02 1.02 0 0 Z " fill="#C5A377" transform="translate(326,464)"/>
<path d="M0 0 C0.1875 2.375 0.1875 2.375 0 5 C-0.99 5.66 -1.98 6.32 -3 7 C-3.99 8.485 -3.99 8.485 -5 10 C-5 8.68 -5 7.36 -5 6 C-6.32 6.33 -7.64 6.66 -9 7 C-8.67 5.02 -8.34 3.04 -8 1 C-5.07175348 0.02391783 -3.04386724 -0.08226668 0 0 Z " fill="#CC9F6A" transform="translate(347,423)"/>
<path d="M0 0 C0.33 1.32 0.66 2.64 1 4 C2.98 2.68 4.96 1.36 7 0 C7 2.31 7 4.62 7 7 C6.67 6.34 6.34 5.68 6 5 C5.34 5 4.68 5 4 5 C3.67 5.99 3.34 6.98 3 8 C2.67 7.34 2.34 6.68 2 6 C1.34 8.64 0.68 11.28 0 14 C-2 11 -2 11 -1.7578125 8.30078125 C-1.54898437 7.31464844 -1.34015625 6.32851563 -1.125 5.3125 C-0.92132813 4.31863281 -0.71765625 3.32476562 -0.5078125 2.30078125 C-0.34023438 1.54152344 -0.17265625 0.78226562 0 0 Z " fill="#B59369" transform="translate(415,419)"/>
<path d="M0 0 C1.32 0.33 2.64 0.66 4 1 C-5.405 5.95 -5.405 5.95 -15 11 C-15.33 10.01 -15.66 9.02 -16 8 C-13 6 -13 6 -10 6 C-10 5.34 -10 4.68 -10 4 C-9.36191406 3.79503906 -8.72382813 3.59007812 -8.06640625 3.37890625 C-6.82697266 2.97478516 -6.82697266 2.97478516 -5.5625 2.5625 C-4.73878906 2.29566406 -3.91507812 2.02882813 -3.06640625 1.75390625 C-1.03780412 1.17844506 -1.03780412 1.17844506 0 0 Z " fill="#BC9E74" transform="translate(405,359)"/>
<path d="M0 0 C-2.48904468 2.48904468 -3.55849404 2.35528113 -7.0078125 2.6328125 C-7.99394531 2.71660156 -8.98007812 2.80039063 -9.99609375 2.88671875 C-11.02863281 2.96535156 -12.06117188 3.04398438 -13.125 3.125 C-14.16527344 3.21136719 -15.20554687 3.29773438 -16.27734375 3.38671875 C-18.85101589 3.59922379 -21.42508017 3.80329156 -24 4 C-20.66987294 1.77991529 -18.14486924 1.16920407 -14.25 0.3125 C-13.05890625 0.04050781 -11.8678125 -0.23148438 -10.640625 -0.51171875 C-6.82716913 -1.02318011 -3.7633371 -0.71889388 0 0 Z " fill="#AC8C63" transform="translate(506,209)"/>
<path d="M0 0 C5.2676092 0.47887356 5.96314468 0.96314468 10 5 C6.04 5.66 2.08 6.32 -2 7 C-1 2 -1 2 0 0 Z " fill="#C49E6F" transform="translate(263,356)"/>
<path d="M0 0 C4.37234153 5.70305417 4.5749313 9.86126971 4 17 C3.23263386 19.8597773 2.2271448 22.29005523 1 25 C0.34 24.01 -0.32 23.02 -1 22 C-0.67515625 21.47664063 -0.3503125 20.95328125 -0.015625 20.4140625 C1.29680697 17.29451266 1.26524004 14.75066987 1.25 11.375 C1.25773437 9.65410156 1.25773437 9.65410156 1.265625 7.8984375 C1.29999435 4.87357824 1.29999435 4.87357824 -1 3 C-0.67 2.01 -0.34 1.02 0 0 Z " fill="#1C0F06" transform="translate(464,290)"/>
<path d="M0 0 C0.66 0.66 1.32 1.32 2 2 C-1.10949361 2.5922845 -3.89042148 3.00447259 -7.0625 2.875 C-10.50772416 3.02160528 -12.2168637 4.0354332 -15 6 C-15.99 5.01 -16.98 4.02 -18 3 C-11.98913108 0.3285027 -6.60847935 -0.94582325 0 0 Z " fill="#A78D69" transform="translate(450,274)"/>
<path d="M0 0 C0.66 0 1.32 0 2 0 C0.49087042 4.98012761 -2.55661849 8.24259942 -6 12 C-6.92425781 11.73703125 -6.92425781 11.73703125 -7.8671875 11.46875 C-10.29053674 10.93614577 -11.64017093 11.37071225 -14 12 C-14.66 11.67 -15.32 11.34 -16 11 C-14.4375 9.4375 -14.4375 9.4375 -12 8 C-8.25 8.3125 -8.25 8.3125 -5 9 C-5 7.68 -5 6.36 -5 5 C-4.01 5 -3.02 5 -2 5 C-2 4.34 -2 3.68 -2 3 C-1.34 3 -0.68 3 0 3 C0 2.01 0 1.02 0 0 Z " fill="#B79769" transform="translate(533,311)"/>
<path d="M0 0 C0.99 0.495 0.99 0.495 2 1 C2 1.66 2 2.32 2 3 C2.53625 2.731875 3.0725 2.46375 3.625 2.1875 C6.57282601 1.95477689 7.04811495 2.5799856 9.25 4.4375 C10.1575 5.283125 11.065 6.12875 12 7 C11.67 7.66 11.34 8.32 11 9 C10.4225 8.690625 9.845 8.38125 9.25 8.0625 C7.15705816 7.07416636 5.25464725 6.4831387 3 6 C2.67 6.99 2.34 7.98 2 9 C0 7 0 7 -0.125 3.375 C-0.08375 2.26125 -0.0425 1.1475 0 0 Z " fill="#C09965" transform="translate(313,417)"/>
<path d="M0 0 C1.14507772 5.28497409 1.14507772 5.28497409 1 8 C-1.4375 10.5 -1.4375 10.5 -4 12 C-5.42041821 9.15916359 -5.31452272 7.14522722 -5 4 C-1.73684211 0 -1.73684211 0 0 0 Z " fill="#C8A066" transform="translate(423,406)"/>
<path d="M0 0 C0 3.92823101 -1.51754449 5.06618894 -4 8 C-4.33 8.66 -4.66 9.32 -5 10 C-6.66279327 11.0064275 -8.32983484 12.00585407 -10 13 C-11.75149165 14.58245275 -11.75149165 14.58245275 -13 16 C-13.66 15.34 -14.32 14.68 -15 14 C-10.05 9.38 -5.1 4.76 0 0 Z " fill="#1D0F07" transform="translate(507,343)"/>
<path d="M0 0 C0.66 0 1.32 0 2 0 C1.34 1.98 0.68 3.96 0 6 C0.99 6.66 1.98 7.32 3 8 C-1.455 9.485 -1.455 9.485 -6 11 C-4.74809374 6.51400257 -3.20614467 3.40652872 0 0 Z " fill="#B2976D" transform="translate(253,339)"/>
<path d="M0 0 C1.42020201 0.22906484 2.83845901 0.47251758 4.25 0.75 C3.92 1.74 3.59 2.73 3.25 3.75 C4.9 3.75 6.55 3.75 8.25 3.75 C8.25 4.08 8.25 4.41 8.25 4.75 C-3.27164009 4.93451025 -3.27164009 4.93451025 -8.75 3.75 C-6.12072175 -0.02244271 -4.38091087 -0.51743042 0 0 Z " fill="#C7A26D" transform="translate(354.75,488.25)"/>
<path d="M0 0 C2.97 0.99 5.94 1.98 9 3 C6.0094833 6.33557632 3.06815373 8.15083921 -1 10 C-0.67 9.21625 -0.34 8.4325 0 7.625 C1.28870252 4.24215589 1.15763525 3.47290574 0 0 Z " fill="#1B0E06" transform="translate(223,445)"/>
<path d="M0 0 C-11.33712984 7.85193622 -11.33712984 7.85193622 -18 8 C-18.33 7.34 -18.66 6.68 -19 6 C-16.2120519 4.80303299 -13.42025583 3.61716986 -10.625 2.4375 C-9.8309375 2.09525391 -9.036875 1.75300781 -8.21875 1.40039062 C-7.45820313 1.08134766 -6.69765625 0.76230469 -5.9140625 0.43359375 C-4.8614624 -0.01415405 -4.8614624 -0.01415405 -3.78759766 -0.47094727 C-2 -1 -2 -1 0 0 Z " fill="#190E06" transform="translate(382,375)"/>
<path d="M0 0 C0.268125 0.639375 0.53625 1.27875 0.8125 1.9375 C1.88667752 4.33131686 1.88667752 4.33131686 5 5 C4.34 8.3 3.68 11.6 3 15 C2.34 14.01 1.68 13.02 1 12 C0.4121875 11.1646875 0.4121875 11.1646875 -0.1875 10.3125 C-1.44985046 6.71965639 -0.62159278 3.72955667 0 0 Z " fill="#C09A69" transform="translate(285,370)"/>
<path d="M0 0 C2.31 0 4.62 0 7 0 C7 0.99 7 1.98 7 3 C8.65 3 10.3 3 12 3 C10.09598862 4.90401138 8.66574314 5.93520439 5.953125 6.19921875 C3.96766727 6.1886578 1.9830086 6.09915043 0 6 C0.185625 5.38125 0.37125 4.7625 0.5625 4.125 C1.23686176 1.95839822 1.23686176 1.95839822 0 0 Z " fill="#C19F75" transform="translate(444,325)"/>
<path d="M0 0 C7.42857143 -0.28571429 7.42857143 -0.28571429 11 2 C9.68 2.33 8.36 2.66 7 3 C7 3.99 7 4.98 7 6 C5.35 6 3.7 6 2 6 C2 5.34 2 4.68 2 4 C1.34 3.34 0.68 2.68 0 2 C0 1.34 0 0.68 0 0 Z " fill="#C9A06F" transform="translate(334,490)"/>
<path d="M0 0 C4.37934119 0.51958285 8.68803391 1.05675742 13 2 C12.67 2.99 12.34 3.98 12 5 C10.56344146 5.08131463 9.1255517 5.13933559 7.6875 5.1875 C6.48673828 5.23970703 6.48673828 5.23970703 5.26171875 5.29296875 C3 5 3 5 1.20703125 3.61328125 C0 2 0 2 0 0 Z " fill="#B69866" transform="translate(288,440)"/>
<path d="M0 0 C0.66 0 1.32 0 2 0 C2 0.66 2 1.32 2 2 C0 3.625 0 3.625 -2 5 C-1.67 5.66 -1.34 6.32 -1 7 C-0.34 7 0.32 7 1 7 C0.6875 8.875 0.6875 8.875 0 11 C-0.99 11.66 -1.98 12.32 -3 13 C-3 11.68 -3 10.36 -3 9 C-4.65 9 -6.3 9 -8 9 C-7.04270084 7.87411986 -6.08412105 6.7493285 -5.125 5.625 C-4.59132813 4.99851562 -4.05765625 4.37203125 -3.5078125 3.7265625 C-2.38567993 2.44163349 -1.20628025 1.20628025 0 0 Z " fill="#BD9D74" transform="translate(517,323)"/>
<path d="M0 0 C0.99 0.33 1.98 0.66 3 1 C4.89470816 1.0685495 6.7916834 1.08480372 8.6875 1.0625 C9.68136719 1.05347656 10.67523438 1.04445313 11.69921875 1.03515625 C12.45847656 1.02355469 13.21773438 1.01195312 14 1 C13.34 2.32 12.68 3.64 12 5 C11.34 5 10.68 5 10 5 C10 4.34 10 3.68 10 3 C9.34 3 8.68 3 8 3 C7.67 3.66 7.34 4.32 7 5 C4.4375 5.625 4.4375 5.625 2 6 C2 5.34 2 4.68 2 4 C1.01 3.67 0.02 3.34 -1 3 C-0.67 2.01 -0.34 1.02 0 0 Z " fill="#22140B" transform="translate(441,297)"/>
<path d="M0 0 C0.75 1.75 0.75 1.75 1 4 C-0.75 6.25 -0.75 6.25 -3 8 C-3.99 8 -4.98 8 -6 8 C-6.33 7.01 -6.66 6.02 -7 5 C-6.67 4.34 -6.34 3.68 -6 3 C-5.34 3 -4.68 3 -4 3 C-4 2.34 -4 1.68 -4 1 C-2 0 -2 0 0 0 Z " fill="#060101" transform="translate(470,273)"/>
<path d="M0 0 C0.33 0.99 0.66 1.98 1 3 C-1.28431738 5.35800504 -3.0081024 6.88720897 -6.3359375 7.265625 C-8.56920205 7.251535 -10.77382441 7.17460201 -13 7 C-9.17058011 3.67006966 -4.62477778 1.94675475 0 0 Z " fill="#B8956B" transform="translate(437,247)"/>
<path d="M0 0 C-0.33 0.99 -0.66 1.98 -1 3 C-2.32796291 3.35412344 -3.66216607 3.68521554 -5 4 C-5.495 4.515625 -5.99 5.03125 -6.5 5.5625 C-8 7 -8 7 -12 7 C-12.33 7.99 -12.66 8.98 -13 10 C-13.99 9.34 -14.98 8.68 -16 8 C-13.9007236 6.6583797 -11.7962168 5.32663161 -9.6875 4 C-9.09259766 3.6184375 -8.49769531 3.236875 -7.88476562 2.84375 C-3.33984375 0 -3.33984375 0 0 0 Z " fill="#B59A6F" transform="translate(269,402)"/>
<path d="M0 0 C0.66 0.33 1.32 0.66 2 1 C-2.87430887 5.87430887 -7.69926706 10.58272255 -13 15 C-13.66 15.66 -14.32 16.32 -15 17 C-15 14 -15 14 -13.49609375 12.16796875 C-12.81675781 11.51441406 -12.13742187 10.86085938 -11.4375 10.1875 C-10.71433594 9.49011719 -9.99117188 8.79273438 -9.24609375 8.07421875 C-6.23324781 5.29192102 -3.1504983 2.62541525 0 0 Z " fill="#2C1C0F" transform="translate(365,280)"/>
<path d="M0 0 C0.99 0.33 1.98 0.66 3 1 C3 2.65 3 4.3 3 6 C1.68 6.33 0.36 6.66 -1 7 C-1 8.98 -1 10.96 -1 13 C-1.99 13.495 -1.99 13.495 -3 14 C-2.67 12.02 -2.34 10.04 -2 8 C-2.66 7.67 -3.32 7.34 -4 7 C-3.39816251 4.97954558 -2.72693904 2.97888961 -2 1 C-1.34 0.67 -0.68 0.34 0 0 Z " fill="#C9A271" transform="translate(460,279)"/>
<path d="M0 0 C0.99 0 1.98 0 3 0 C2.63076923 6.4 2.63076923 6.4 -0.5625 9.4375 C-1.7690625 10.2109375 -1.7690625 10.2109375 -3 11 C-4.125 7.25 -4.125 7.25 -3 5 C-2.01 5 -1.02 5 0 5 C0 3.35 0 1.7 0 0 Z " fill="#B79B74" transform="translate(299,357)"/>
<path d="M0 0 C0.33 1.32 0.66 2.64 1 4 C-1.12124966 4.86343824 -3.24713072 5.71550648 -5.375 6.5625 C-7.15003906 7.27599609 -7.15003906 7.27599609 -8.9609375 8.00390625 C-12 9 -12 9 -14 8 C-12.04532248 6.66101601 -10.0866421 5.32870953 -8.125 4 C-7.03445312 3.2575 -5.94390625 2.515 -4.8203125 1.75 C-2 0 -2 0 0 0 Z " fill="#AA977C" transform="translate(135,510)"/>
<path d="M0 0 C0.66 0.66 1.32 1.32 2 2 C-2.62 4.97 -7.24 7.94 -12 11 C-12 10.01 -12 9.02 -12 8 C-9.375 5.95703125 -9.375 5.95703125 -6 3.8125 C-5.42765625 3.44447266 -4.8553125 3.07644531 -4.265625 2.69726562 C-2.84975538 1.78874929 -1.42562203 0.89313523 0 0 Z " fill="#190C05" transform="translate(134,507)"/>
<path d="M0 0 C-0.33 0.99 -0.66 1.98 -1 3 C-0.34 3.33 0.32 3.66 1 4 C-1.95664519 5.4783226 -4.74229737 5.06032783 -8 5 C-7.25 2.5625 -7.25 2.5625 -6 0 C-3.40713222 -1.13437965 -2.55267344 -1.27633672 0 0 Z " fill="#C99F6F" transform="translate(151,503)"/>
<path d="M0 0 C1.24546405 2.49092811 0.7767578 3.41080733 0 6 C-1.093125 6.12375 -2.18625 6.2475 -3.3125 6.375 C-7.07381802 6.75464801 -7.07381802 6.75464801 -10 9 C-10.99 8.67 -11.98 8.34 -13 8 C-8.71 5.36 -4.42 2.72 0 0 Z " fill="#B7996D" transform="translate(183,479)"/>
<path d="M0 0 C2.4375 0.375 2.4375 0.375 5 1 C5.33 1.66 5.66 2.32 6 3 C8.58605332 3.4683265 8.58605332 3.4683265 11.5625 3.625 C13.08037109 3.73714844 13.08037109 3.73714844 14.62890625 3.8515625 C15.80259766 3.92503906 15.80259766 3.92503906 17 4 C14.62839852 6.37160148 13.99378878 6.31983352 10.75 6.375 C5.97690285 6.28246823 3.57524481 5.11688009 0 2 C0 1.34 0 0.68 0 0 Z " fill="#B49772" transform="translate(318,427)"/>
<path d="M0 0 C0.33 0.66 0.66 1.32 1 2 C0.54625 2.556875 0.0925 3.11375 -0.375 3.6875 C-2.0996198 5.92970528 -2.0996198 5.92970528 -2.9375 8.5625 C-4.18085714 11.41490756 -5.2819021 12.51740115 -8 14 C-8.99 13.67 -9.98 13.34 -11 13 C-10.06027344 11.96939453 -10.06027344 11.96939453 -9.1015625 10.91796875 C-8.28429687 10.01691406 -7.46703125 9.11585938 -6.625 8.1875 C-5.81289063 7.29417969 -5.00078125 6.40085937 -4.1640625 5.48046875 C-1.90927093 3.00367326 -1.90927093 3.00367326 0 0 Z " fill="#1D1007" transform="translate(535,312)"/>
<path d="M0 0 C1.98 0.66 3.96 1.32 6 2 C3.14723863 4.93200474 0.34920216 7.64315404 -3 10 C-2.21302675 6.58978257 -1.12880057 3.31114834 0 0 Z " fill="#150D08" transform="translate(356,272)"/>
<path d="M0 0 C1.32 1.65 2.64 3.3 4 5 C2 7 2 7 -1 9 C-1 7.68 -1 6.36 -1 5 C-2.32 4.67 -3.64 4.34 -5 4 C-5 3.34 -5 2.68 -5 2 C-3.35 1.34 -1.7 0.68 0 0 Z M-7 5 C-5 6 -5 6 -5 6 Z " fill="#B79466" transform="translate(337,423)"/>
<path d="M0 0 C0.66 0 1.32 0 2 0 C2.25028811 1.58013217 2.47440946 3.16442306 2.6875 4.75 C2.87892578 6.07257813 2.87892578 6.07257813 3.07421875 7.421875 C2.98397191 10.55676517 2.07384637 11.71823587 0 14 C-0.91297308 9.02936879 -0.91297308 4.97063121 0 0 Z " fill="#CA9F64" transform="translate(470,295)"/>
<path d="M0 0 C0.33 0.66 0.66 1.32 1 2 C0.34 2 -0.32 2 -1 2 C-1 2.99 -1 3.98 -1 5 C-2.24176695 5.70226141 -3.49385599 6.38629109 -4.75 7.0625 C-5.79414063 7.63677734 -5.79414063 7.63677734 -6.859375 8.22265625 C-9 9 -9 9 -13 8 C-8.71 5.36 -4.42 2.72 0 0 Z " fill="#B59672" transform="translate(283,391)"/>
<path d="M0 0 C-0.639375 0.268125 -1.27875 0.53625 -1.9375 0.8125 C-4.33131686 1.88667752 -4.33131686 1.88667752 -5 5 C-6.65 4.67 -8.3 4.34 -10 4 C-9.34 3.34 -8.68 2.68 -8 2 C-10.64 1.67 -13.28 1.34 -16 1 C-16 0.67 -16 0.34 -16 0 C-10.47032059 -0.71033431 -5.50016964 -1.30267176 0 0 Z " fill="#AC8A5B" transform="translate(458,324)"/>
<path d="M0 0 C0.99 0.33 1.98 0.66 3 1 C3 2.32 3 3.64 3 5 C2.34 5.66 1.68 6.32 1 7 C0.34 6.34 -0.32 5.68 -1 5 C-1.66 5.66 -2.32 6.32 -3 7 C-5.125 6.625 -5.125 6.625 -7 6 C-6.34 5.01 -5.68 4.02 -5 3 C-3.68 3 -2.36 3 -1 3 C-0.67 2.01 -0.34 1.02 0 0 Z " fill="#BD9565" transform="translate(260,302)"/>
<path d="M0 0 C0.66 0.33 1.32 0.66 2 1 C-0.88406243 4.40843742 -2.3708265 5.86591384 -6.8125 6.8125 C-8.3903125 6.9053125 -8.3903125 6.9053125 -10 7 C-7.01767477 3.67356033 -4.13629913 1.70847138 0 0 Z " fill="#BB9D6E" transform="translate(421,255)"/>
<path d="M0 0 C-2.78796658 3.83345405 -6.5612284 4.22497639 -11 5 C-11.66 4.34 -12.32 3.68 -13 3 C-11.5903653 2.29819469 -10.17192359 1.61406042 -8.75 0.9375 C-7.96109375 0.55464844 -7.1721875 0.17179688 -6.359375 -0.22265625 C-3.74006478 -1.08564091 -2.55144824 -0.93045933 0 0 Z " fill="#B5946C" transform="translate(454,242)"/>
<path d="M0 0 C0 0.66 0 1.32 0 2 C-0.66 2 -1.32 2 -2 2 C-2 3.65 -2 5.3 -2 7 C-3.65 7.33 -5.3 7.66 -7 8 C-6.67 5.69 -6.34 3.38 -6 1 C-3 0 -3 0 0 0 Z " fill="#C9A06C" transform="translate(587,212)"/>
<path d="M0 0 C2.75 -0.25 2.75 -0.25 6 0 C8.375 2 8.375 2 10 4 C9.34 4 8.68 4 8 4 C8 4.66 8 5.32 8 6 C9.32 6.33 10.64 6.66 12 7 C6.25 7.125 6.25 7.125 4 6 C3.855625 5.360625 3.71125 4.72125 3.5625 4.0625 C3.13834965 1.61789145 3.13834965 1.61789145 0 0 Z " fill="#AB8A5E" transform="translate(328,490)"/>
<path d="M0 0 C2 3 2 3 1.625 5.6875 C1.41875 6.450625 1.2125 7.21375 1 8 C0.01 8.33 -0.98 8.66 -2 9 C-1.125 1.125 -1.125 1.125 0 0 Z M-3 9 C-1 12 -1 12 -1 16 C-1.66 16 -2.32 16 -3 16 C-3 13.69 -3 11.38 -3 9 Z " fill="#CA9C62" transform="translate(417,424)"/>
<path d="M0 0 C0.99 0 1.98 0 3 0 C2.34 5.94 1.68 11.88 1 18 C-1 16 -1 16 -1.1875 12.9375 C-0.98059244 8.59244127 -0.54774775 4.31351351 0 0 Z " fill="#BA9D75" transform="translate(407,288)"/>
<path d="M0 0 C2.1875 0.3125 2.1875 0.3125 4 1 C0.2064129 4.21880117 -3.65829477 6.6163187 -8 9 C-8 8.01 -8 7.02 -8 6 C-6.36935236 4.94228261 -4.69719127 3.94726954 -3 3 C-2.484375 2.4225 -1.96875 1.845 -1.4375 1.25 C-0.7259375 0.63125 -0.7259375 0.63125 0 0 Z " fill="#190B04" transform="translate(406,260)"/>
<path d="M0 0 C0 1.65 0 3.3 0 5 C-2.475 4.505 -2.475 4.505 -5 4 C-4.67 3.34 -4.34 2.68 -4 2 C-8.62 2 -13.24 2 -18 2 C-18 1.67 -18 1.34 -18 1 C-11.95170514 0.10395632 -6.1105424 -0.11269443 0 0 Z " fill="#BC9965" transform="translate(496,212)"/>
<path d="M0 0 C1.75012392 2.67666012 2.02213128 3.81926117 1.625 7.0625 C1.41875 8.031875 1.2125 9.00125 1 10 C1 10.99 1 11.98 1 13 C0.67 13.66 0.34 14.32 0 15 C-0.99 15 -1.98 15 -3 15 C-2.68917128 13.24970238 -2.37626821 11.49977306 -2.0625 9.75 C-1.88847656 8.77546875 -1.71445312 7.8009375 -1.53515625 6.796875 C-1.09620271 4.50278205 -0.59651408 2.25708029 0 0 Z " fill="#B4905F" transform="translate(291,374)"/>
<path d="M0 0 C1.98 0.99 3.96 1.98 6 3 C6 3.99 6 4.98 6 6 C5.01 6 4.02 6 3 6 C3 5.34 3 4.68 3 4 C2.01 4.495 2.01 4.495 1 5 C-0.99960012 5.039992 -3.00047242 5.04346799 -5 5 C-3.35 3.35 -1.7 1.7 0 0 Z " fill="#B99468" transform="translate(473,363)"/>
<path d="M0 0 C1.9375 0.8125 1.9375 0.8125 4 2 C4.33 2.99 4.66 3.98 5 5 C2 6 2 6 -1 6 C-1 7.65 -1 9.3 -1 11 C-1.33 11 -1.66 11 -2 11 C-2 9.35 -2 7.7 -2 6 C-2.99 5.67 -3.98 5.34 -5 5 C-3 4 -3 4 0 4 C0 2.68 0 1.36 0 0 Z " fill="#AB8D63" transform="translate(582,207)"/>
<path d="M0 0 C0.99 0.66 1.98 1.32 3 2 C-1.51718381 3.36884358 -4.58774263 2.47075246 -9 1 C-6.80595188 -3.38809623 -3.59258749 -1.70647906 0 0 Z " fill="#B5976A" transform="translate(229,444)"/>
<path d="M0 0 C0.268125 0.61875 0.53625 1.2375 0.8125 1.875 C1.95556848 4.2995233 1.95556848 4.2995233 5 6 C-3.57142857 5.14285714 -3.57142857 5.14285714 -7 3 C-2.25 0 -2.25 0 0 0 Z " fill="#1F0F05" transform="translate(295,436)"/>
<path d="M0 0 C2.48906616 3.235786 4.75267043 6.5927584 7 10 C7.99 11.485 7.99 11.485 9 13 C8.01 13.495 8.01 13.495 7 14 C5 13 5 13 4 10 C3.34 9.67 2.68 9.34 2 9 C0.03191281 5.93853104 -0.19990835 3.59835033 0 0 Z " fill="#B39670" transform="translate(411,318)"/>
<path d="M0 0 C0.93045933 2.55144824 1.08564091 3.74006478 0.22265625 6.359375 C-0.16019531 7.14828125 -0.54304687 7.9371875 -0.9375 8.75 C-1.50791016 9.94882813 -1.50791016 9.94882813 -2.08984375 11.171875 C-2.39019531 11.77515625 -2.69054687 12.3784375 -3 13 C-4.0859375 11.203125 -4.0859375 11.203125 -5 9 C-3.625 5.75 -3.625 5.75 -2 3 C-1.34 3 -0.68 3 0 3 C0 2.01 0 1.02 0 0 Z " fill="#BD9C74" transform="translate(582,229)"/>
<path d="M0 0 C-2.76941606 0.83830973 -5.54035069 1.67082034 -8.3125 2.5 C-9.49102539 2.85771484 -9.49102539 2.85771484 -10.69335938 3.22265625 C-11.45068359 3.44824219 -12.20800781 3.67382812 -12.98828125 3.90625 C-13.68477783 4.11572266 -14.38127441 4.32519531 -15.09887695 4.54101562 C-17 5 -17 5 -20 5 C-19.67 4.01 -19.34 3.02 -19 2 C-16.58525383 1.46839543 -14.16891893 0.94945234 -11.75 0.4375 C-11.06808594 0.28603516 -10.38617188 0.13457031 -9.68359375 -0.02148438 C-6.07779197 -0.77415174 -3.51399559 -1.06166083 0 0 Z " fill="#1E0E05" transform="translate(491,229)"/>
<path d="M0 0 C-0.33 0.99 -0.66 1.98 -1 3 C-1.0685495 4.89470816 -1.08480372 6.7916834 -1.0625 8.6875 C-1.05347656 9.68136719 -1.04445313 10.67523438 -1.03515625 11.69921875 C-1.02355469 12.45847656 -1.01195312 13.21773438 -1 14 C-1.66 14 -2.32 14 -3 14 C-3.41676948 12.23397681 -3.8077738 10.46185699 -4.1875 8.6875 C-4.40792969 7.70136719 -4.62835938 6.71523438 -4.85546875 5.69921875 C-5 3 -5 3 -3.67578125 1.14453125 C-2 0 -2 0 0 0 Z " fill="#241409" transform="translate(311,477)"/>
<path d="M0 0 C-0.33 0.99 -0.66 1.98 -1 3 C-7.0546875 3.9765625 -7.0546875 3.9765625 -9 4 C-9.66 3.34 -10.32 2.68 -11 2 C-9.73392393 1.46770674 -8.46189588 0.94955456 -7.1875 0.4375 C-6.47980469 0.14746094 -5.77210938 -0.14257812 -5.04296875 -0.44140625 C-3 -1 -3 -1 0 0 Z " fill="#180D08" transform="translate(302,451)"/>
<path d="M0 0 C0.66 0.33 1.32 0.66 2 1 C0.59627198 2.20276695 -0.82352097 3.38680519 -2.25 4.5625 C-3.43335938 5.55443359 -3.43335938 5.55443359 -4.640625 6.56640625 C-7 8 -7 8 -9.296875 7.71484375 C-9.85890625 7.47894531 -10.4209375 7.24304688 -11 7 C-9.21475351 5.80286983 -7.4215972 4.61752721 -5.625 3.4375 C-4.62726563 2.77621094 -3.62953125 2.11492187 -2.6015625 1.43359375 C-1.74304688 0.96050781 -0.88453125 0.48742187 0 0 Z " fill="#221309" transform="translate(306,428)"/>
<path d="M0 0 C0.66 0.33 1.32 0.66 2 1 C0.71372289 2.17260611 -0.57919783 3.3379283 -1.875 4.5 C-2.59429687 5.1496875 -3.31359375 5.799375 -4.0546875 6.46875 C-6 8 -6 8 -8 8 C-8.33 8.66 -8.66 9.32 -9 10 C-9.99 9.34 -10.98 8.68 -12 8 C-11.21753906 7.50628906 -10.43507813 7.01257813 -9.62890625 6.50390625 C-8.61699219 5.86324219 -7.60507812 5.22257812 -6.5625 4.5625 C-5.55316406 3.92441406 -4.54382813 3.28632813 -3.50390625 2.62890625 C-1.15446165 1.22350458 -1.15446165 1.22350458 0 0 Z " fill="#211208" transform="translate(460,381)"/>
<path d="M0 0 C3.3 0.33 6.6 0.66 10 1 C9.67 1.99 9.34 2.98 9 4 C5.37 3.67 1.74 3.34 -2 3 C-1.34 2.01 -0.68 1.02 0 0 Z " fill="#AA8E65" transform="translate(336,296)"/>
<path d="M0 0 C0.80824219 0.28746094 1.61648438 0.57492187 2.44921875 0.87109375 C3.06410156 1.09925781 3.67898438 1.32742188 4.3125 1.5625 C0.01522603 2.86910357 -3.28965865 2.2221762 -7.6875 1.5625 C-7.6875 0.9025 -7.6875 0.2425 -7.6875 -0.4375 C-4.20878379 -1.59707207 -3.34530355 -1.21206651 0 0 Z " fill="#BD9C6A" transform="translate(456.6875,276.4375)"/>
<path d="M0 0 C2.0625 0.4375 2.0625 0.4375 4 1 C4 2.32 4 3.64 4 5 C0.7 5 -2.6 5 -6 5 C-5.195625 4.360625 -4.39125 3.72125 -3.5625 3.0625 C-1.7249496 1.59396498 -1.7249496 1.59396498 0 0 Z " fill="#B6986D" transform="translate(240,418)"/>
<path d="M0 0 C-2.6598561 3.44216672 -5.90288286 3.99504674 -10 5 C-9.01906046 2.54765115 -8.31296172 1.2190732 -6.125 -0.3125 C-3.64990694 -1.1132654 -2.41712366 -0.86325845 0 0 Z " fill="#BB9C70" transform="translate(366,379)"/>
<path d="M0 0 C-0.33 2.64 -0.66 5.28 -1 8 C-2.32 7.34 -3.64 6.68 -5 6 C-5 5.34 -5 4.68 -5 4 C-5.99 3.34 -6.98 2.68 -8 2 C-5.09399739 0.74335022 -3.20395416 0 0 0 Z " fill="#B79468" transform="translate(263,356)"/>
<path d="M0 0 C2 2 2 2 2 6 C0.02 6.33 -1.96 6.66 -4 7 C-3.43628586 3.73045798 -2.50037734 2.17424117 0 0 Z " fill="#CC9E62" transform="translate(538,301)"/>
<path d="M0 0 C0.66 0.66 1.32 1.32 2 2 C1.34 2 0.68 2 0 2 C-0.2165625 2.928125 -0.2165625 2.928125 -0.4375 3.875 C-1 6 -1 6 -2 8 C-2.66 8 -3.32 8 -4 8 C-5 5 -5 5 -4 2 C-1.9375 0.8125 -1.9375 0.8125 0 0 Z " fill="#C79D67" transform="translate(545,293)"/>
<path d="M0 0 C-0.33 1.65 -0.66 3.3 -1 5 C-1.99 5.33 -2.98 5.66 -4 6 C-4.33 5.67 -4.66 5.34 -5 5 C-5.66 5.66 -6.32 6.32 -7 7 C-7 4 -7 4 -5.1875 1.8125 C-3 0 -3 0 0 0 Z " fill="#B89766" transform="translate(351,286)"/>
<path d="M0 0 C0.99 0.33 1.98 0.66 3 1 C0.58856189 4.61715717 -0.87835957 4.96958989 -5 6 C-5.66 5.67 -6.32 5.34 -7 5 C-7 4.34 -7 3.68 -7 3 C-7.66 2.67 -8.32 2.34 -9 2 C-8.01 1.67 -7.02 1.34 -6 1 C-5.67 1.66 -5.34 2.32 -5 3 C-4.236875 2.484375 -3.47375 1.96875 -2.6875 1.4375 C-1.800625 0.963125 -0.91375 0.48875 0 0 Z " fill="#BC986C" transform="translate(359,282)"/>
<path d="M0 0 C0.99 0.33 1.98 0.66 3 1 C3 1.66 3 2.32 3 3 C2.34 3 1.68 3 1 3 C1 3.99 1 4.98 1 6 C-1.97 5.505 -1.97 5.505 -5 5 C-3.35 3.35 -1.7 1.7 0 0 Z " fill="#B2976D" transform="translate(212,436)"/>
<path d="M0 0 C2.31 0 4.62 0 7 0 C7.33 0.66 7.66 1.32 8 2 C5.64031256 4.09749995 4.45383006 4.96905704 1.25 5.1875 C0.13625 5.0946875 0.13625 5.0946875 -1 5 C-0.34 4.67 0.32 4.34 1 4 C0.67 2.68 0.34 1.36 0 0 Z " fill="#C99F6B" transform="translate(424,395)"/>
<path d="M0 0 C1 2 1 2 0.375 5.5 C-1 9 -1 9 -3.5859375 10.21875 C-4.38257813 10.4765625 -5.17921875 10.734375 -6 11 C-5.18993474 9.35296694 -4.3768779 7.70740494 -3.5625 6.0625 C-3.11003906 5.14597656 -2.65757812 4.22945313 -2.19140625 3.28515625 C-1 1 -1 1 0 0 Z " fill="#B3936C" transform="translate(323,344)"/>
<path d="M0 0 C0.66 0.33 1.32 0.66 2 1 C2.5625 2.9375 2.5625 2.9375 3 5 C3.33 5.66 3.66 6.32 4 7 C2.68 8.32 1.36 9.64 0 11 C-1.1004671 7.01080675 -1.1004671 3.98919325 0 0 Z " fill="#C7A173" transform="translate(248,314)"/>
<path d="M0 0 C0 2.31 0 4.62 0 7 C-0.99 6.67 -1.98 6.34 -3 6 C-3 5.34 -3 4.68 -3 4 C-3.99 4.33 -4.98 4.66 -6 5 C-5 2 -5 2 -3 0.8125 C-1 0 -1 0 0 0 Z " fill="#221206" transform="translate(438,282)"/>
<path d="M0 0 C0.66 0.33 1.32 0.66 2 1 C-0.31883213 5.50884026 -3.06451569 7.93906776 -7 11 C-7.66 10.67 -8.32 10.34 -9 10 C-6.03 6.7 -3.06 3.4 0 0 Z " fill="#24160A" transform="translate(518,270)"/>
<path d="M0 0 C6.93 0 13.86 0 21 0 C21 0.99 21 1.98 21 3 C20.34 2.67 19.68 2.34 19 2 C17.5534758 1.84932786 16.1012066 1.75138964 14.6484375 1.68359375 C13.37226563 1.62075195 13.37226563 1.62075195 12.0703125 1.55664062 C11.18085938 1.51732422 10.29140625 1.47800781 9.375 1.4375 C8.4778125 1.39431641 7.580625 1.35113281 6.65625 1.30664062 C4.43765717 1.20043139 2.2189512 1.09838806 0 1 C0 0.67 0 0.34 0 0 Z " fill="#221308" transform="translate(270,361)"/>
<path d="M0 0 C0.99 0.33 1.98 0.66 3 1 C3 2.65 3 4.3 3 6 C1.68 6.33 0.36 6.66 -1 7 C-2 4 -2 4 -1.0625 1.8125 C-0.5365625 0.9153125 -0.5365625 0.9153125 0 0 Z " fill="#C89D60" transform="translate(233,340)"/>
<path d="M0 0 C0 3.23830467 -0.29194726 4.31591712 -2 7 C-4.625 9.25 -4.625 9.25 -7 11 C-7.66 10.67 -8.32 10.34 -9 10 C-6.03 6.7 -3.06 3.4 0 0 Z " fill="#B3966E" transform="translate(348,312)"/>
<path d="M0 0 C0.33 0 0.66 0 1 0 C1 2.97 1 5.94 1 9 C-0.32 8.67 -1.64 8.34 -3 8 C-1.125 1.125 -1.125 1.125 0 0 Z " fill="#CC9D6B" transform="translate(551,279)"/>
<path d="M0 0 C0 1.32 0 2.64 0 4 C-1.98 4 -3.96 4 -6 4 C-6 3.34 -6 2.68 -6 2 C-6.66 1.67 -7.32 1.34 -8 1 C-3.375 -1.125 -3.375 -1.125 0 0 Z " fill="#CB9F68" transform="translate(394,255)"/>
<path d="M0 0 C0.66 0.66 1.32 1.32 2 2 C1.625 4.125 1.625 4.125 1 6 C0.01 6 -0.98 6 -2 6 C-2 7.32 -2 8.64 -2 10 C-2.66 10 -3.32 10 -4 10 C-3.43454163 6.04179141 -2.19097652 3.3340947 0 0 Z " fill="#CC9D67" transform="translate(530,310)"/>
<path d="M0 0 C0.99 0.33 1.98 0.66 3 1 C2.04578192 2.14926266 1.08647955 3.29430541 0.125 4.4375 C-0.40867187 5.07558594 -0.94234375 5.71367187 -1.4921875 6.37109375 C-3 8 -3 8 -5 9 C-4.5206753 4.68607774 -3.2542015 2.83430453 0 0 Z " fill="#211408" transform="translate(351,305)"/>
<path d="M0 0 C0.89203125 0.11085938 1.7840625 0.22171875 2.703125 0.3359375 C3.37859375 0.43132812 4.0540625 0.52671875 4.75 0.625 C4.42 1.285 4.09 1.945 3.75 2.625 C-0.54 2.295 -4.83 1.965 -9.25 1.625 C-5.16240337 -0.41879831 -4.26314435 -0.56094005 0 0 Z " fill="#B3946B" transform="translate(319.25,293.375)"/>
<path d="M0 0 C1.65 0 3.3 0 5 0 C5 0.66 5 1.32 5 2 C4.34 2 3.68 2 3 2 C2.67 3.98 2.34 5.96 2 8 C1.34 8 0.68 8 0 8 C-1.125 2.25 -1.125 2.25 0 0 Z " fill="#C39B5F" transform="translate(552,276)"/>
<path d="M0 0 C-2.09782787 2.09782787 -3.3799207 2.6509396 -6.125 3.625 C-6.84945313 3.88539063 -7.57390625 4.14578125 -8.3203125 4.4140625 C-9.15175781 4.70410156 -9.15175781 4.70410156 -10 5 C-10.33 4.01 -10.66 3.02 -11 2 C-7.17010894 0.19769832 -4.21878192 -0.19622241 0 0 Z " fill="#180B03" transform="translate(448,242)"/>
<path d="M0 0 C4.29 0.33 8.58 0.66 13 1 C13 1.33 13 1.66 13 2 C8.38 2.33 3.76 2.66 -1 3 C-0.67 2.01 -0.34 1.02 0 0 Z " fill="#160902" transform="translate(523,220)"/>
<path d="M0 0 C3.125 -0.1875 3.125 -0.1875 6 0 C6 1.32 6 2.64 6 4 C3.36 3.67 0.72 3.34 -2 3 C-1.34 2.01 -0.68 1.02 0 0 Z " fill="#CBA066" transform="translate(362,488)"/>
<path d="M0 0 C0.66 0.66 1.32 1.32 2 2 C-0.97 4.475 -0.97 4.475 -4 7 C-4.66 6.01 -5.32 5.02 -6 4 C-5.34 4 -4.68 4 -4 4 C-4 3.34 -4 2.68 -4 2 C-2.68 1.34 -1.36 0.68 0 0 Z " fill="#170C05" transform="translate(319,467)"/>
<path d="M0 0 C0.99 0.33 1.98 0.66 3 1 C3 1.66 3 2.32 3 3 C3.66 3 4.32 3 5 3 C4.67 5.31 4.34 7.62 4 10 C3.01 9.67 2.02 9.34 1 9 C1 8.01 1 7.02 1 6 C1.66 6 2.32 6 3 6 C2.01 4.02 1.02 2.04 0 0 Z " fill="#C9A36F" transform="translate(225,355)"/>
<path d="M0 0 C0.33 0 0.66 0 1 0 C1.75 3.25 1.75 3.25 2 7 C0.1875 9.4375 0.1875 9.4375 -2 11 C-2.66 11 -3.32 11 -4 11 C-2.7874262 7.27566618 -1.49140021 3.62197194 0 0 Z " fill="#B49369" transform="translate(229,344)"/>
<path d="M0 0 C1 4 1 4 0.00390625 5.703125 C-1.33072917 7.13541667 -2.66536458 8.56770833 -4 10 C-4.66 9.34 -5.32 8.68 -6 8 C-4.02 5.36 -2.04 2.72 0 0 Z " fill="#150804" transform="translate(345,311)"/>
<path d="M0 0 C0.33 0 0.66 0 1 0 C1.27573092 2.10094974 1.51978976 4.20607635 1.75 6.3125 C1.88921875 7.48425781 2.0284375 8.65601563 2.171875 9.86328125 C2.11515625 10.89839844 2.0584375 11.93351562 2 13 C0.68 13.99 -0.64 14.98 -2 16 C-1.34 10.72 -0.68 5.44 0 0 Z " fill="#362618" transform="translate(474,298)"/>
<path d="M0 0 C0.99 0.33 1.98 0.66 3 1 C1.95125002 3.62187494 1.35068687 4.79371361 -1.125 6.25 C-1.74375 6.4975 -2.3625 6.745 -3 7 C-3.33 6.01 -3.66 5.02 -4 4 C-2.68 2.68 -1.36 1.36 0 0 Z " fill="#B89A6F" transform="translate(455,292)"/>
<path d="M0 0 C-3.31371 2.20914 -4.3446021 2.22481553 -8.1875 2.125 C-9.08855469 2.10695313 -9.98960937 2.08890625 -10.91796875 2.0703125 C-11.60503906 2.04710937 -12.29210937 2.02390625 -13 2 C-8.24378872 -1.17080752 -5.58805025 -1.14301028 0 0 Z " fill="#AD8D62" transform="translate(288,289)"/>
<path d="M0 0 C0.66 0.66 1.32 1.32 2 2 C1.21654285 3.17219543 0.42297164 4.33763668 -0.375 5.5 C-0.81585938 6.1496875 -1.25671875 6.799375 -1.7109375 7.46875 C-2.13632812 7.9740625 -2.56171875 8.479375 -3 9 C-3.66 9 -4.32 9 -5 9 C-4.38722388 6.03824877 -3.74627478 4.61941217 -2 2 C-1.34 2 -0.68 2 0 2 C0 1.34 0 0.68 0 0 Z " fill="#BD9D76" transform="translate(416,275)"/>
<path d="M0 0 C-0.33 0.99 -0.66 1.98 -1 3 C-5.09724467 4.54613006 -7.81857651 5.29227216 -12 4 C-10.3767313 3.3291288 -8.75132422 2.66342971 -7.125 2 C-6.22007812 1.62875 -5.31515625 1.2575 -4.3828125 0.875 C-2 0 -2 0 0 0 Z " fill="#28190C" transform="translate(158,505)"/>
<path d="M0 0 C-1 2 -1 2 -2.703125 2.65234375 C-5.49363104 3.07471626 -7.94585553 2.86294405 -10.75 2.5625 C-12.22726562 2.40974609 -12.22726562 2.40974609 -13.734375 2.25390625 C-14.48203125 2.17011719 -15.2296875 2.08632813 -16 2 C-16 1.67 -16 1.34 -16 1 C-10.65097076 0.40801257 -5.39115154 -0.14187241 0 0 Z " fill="#2C1D0E" transform="translate(336,497)"/>
<path d="M0 0 C-0.125 1.8125 -0.125 1.8125 -1 4 C-4.0625 5.75 -4.0625 5.75 -7 7 C-7 6.01 -7 5.02 -7 4 C-2.65714286 0 -2.65714286 0 0 0 Z " fill="#100A03" transform="translate(184,476)"/>
<path d="M0 0 C0.33 0.99 0.66 1.98 1 3 C-0.1875 4.5625 -0.1875 4.5625 -2 6 C-4.6875 5.6875 -4.6875 5.6875 -7 5 C-2.25 1.125 -2.25 1.125 0 0 Z " fill="#B9966E" transform="translate(223,454)"/>
<path d="M0 0 C0.33 0.66 0.66 1.32 1 2 C-0.25 5.5625 -0.25 5.5625 -2 9 C-2.99 9.33 -3.98 9.66 -5 10 C-4.55090939 8.51800098 -4.09043436 7.03944764 -3.625 5.5625 C-3.36976563 4.73878906 -3.11453125 3.91507812 -2.8515625 3.06640625 C-2 1 -2 1 0 0 Z " fill="#1B1007" transform="translate(415,450)"/>
<path d="M0 0 C0.66 0.33 1.32 0.66 2 1 C-3.29230769 5.92307692 -3.29230769 5.92307692 -6.875 6.3125 C-7.926875 6.1578125 -7.926875 6.1578125 -9 6 C-6.12050853 3.76039553 -3.23257974 1.70135776 0 0 Z " fill="#1E0D08" transform="translate(443,392)"/>
<path d="M0 0 C0.66 0.33 1.32 0.66 2 1 C1.2575 1.8971875 1.2575 1.8971875 0.5 2.8125 C-1.28276418 4.97029994 -1.28276418 4.97029994 -1 8 C-1.3062434 9.33981486 -1.63451555 10.67511887 -2 12 C-2.24954005 10.56589632 -2.47392642 9.12739928 -2.6875 7.6875 C-2.81511719 6.88699219 -2.94273437 6.08648437 -3.07421875 5.26171875 C-3 3 -3 3 -1.51953125 1.20703125 C-1.01808594 0.80871094 -0.51664062 0.41039062 0 0 Z " fill="#1C0E05" transform="translate(295,369)"/>
<path d="M0 0 C2.31 0 4.62 0 7 0 C7 0.66 7 1.32 7 2 C7.99 2.33 8.98 2.66 10 3 C2.25 3.125 2.25 3.125 0 2 C0 1.34 0 0.68 0 0 Z " fill="#CB9D64" transform="translate(278,356)"/>
<path d="M0 0 C0.66 0 1.32 0 2 0 C0.68775452 3.93673644 -0.91910327 6.22719294 -4 9 C-4.33 8.01 -4.66 7.02 -5 6 C-4.34 5.01 -3.68 4.02 -3 3 C-2.34 3 -1.68 3 -1 3 C-0.67 2.01 -0.34 1.02 0 0 Z " fill="#1B1007" transform="translate(263,321)"/>
<path d="M0 0 C0.680625 -0.00515625 1.36125 -0.0103125 2.0625 -0.015625 C4 0.25 4 0.25 7 2.25 C5.35 2.91 3.7 3.57 2 4.25 C2 3.59 2 2.93 2 2.25 C-0.97 2.25 -3.94 2.25 -7 2.25 C-4.00261059 0.25174039 -3.36652492 -0.02550398 0 0 Z " fill="#AB8C64" transform="translate(290,304.75)"/>
<path d="M0 0 C2.625 -0.1875 2.625 -0.1875 5 0 C2.42215154 2.64752004 0.08351902 4.94432065 -3 7 C-2.38722388 4.03824877 -1.74627478 2.61941217 0 0 Z " fill="#1A0C05" transform="translate(369,287)"/>
<path d="M0 0 C0.33 0.99 0.66 1.98 1 3 C-0.21484375 5.04296875 -0.21484375 5.04296875 -1.9375 7.1875 C-2.50339844 7.90292969 -3.06929687 8.61835938 -3.65234375 9.35546875 C-4.09707031 9.89816406 -4.54179688 10.44085938 -5 11 C-5.33 10.34 -5.66 9.68 -6 9 C-4.02 6.03 -2.04 3.06 0 0 Z " fill="#1F1009" transform="translate(560,277)"/>
<path d="M0 0 C0.33 0.66 0.66 1.32 1 2 C0.67 2.99 0.34 3.98 0 5 C-2.64 5.33 -5.28 5.66 -8 6 C-5.63379989 3.38472619 -3.057952 1.73559438 0 0 Z " fill="#B19166" transform="translate(143,504)"/>
<path d="M0 0 C0 0.99 0 1.98 0 3 C-4.43076923 5.09230769 -4.43076923 5.09230769 -7.3125 4.625 C-7.869375 4.41875 -8.42625 4.2125 -9 4 C-6.43425105 1.43425105 -3.68548192 0 0 0 Z " fill="#22160B" transform="translate(194,491)"/>
<path d="M0 0 C1.10844919 3.32534757 0.84454356 5.62182575 0 9 C-0.33 9 -0.66 9 -1 9 C-1.33 7.35 -1.66 5.7 -2 4 C-2.66 4 -3.32 4 -4 4 C-3.67 3.01 -3.34 2.02 -3 1 C-2.01 0.67 -1.02 0.34 0 0 Z " fill="#C7A172" transform="translate(404,461)"/>
<path d="M0 0 C0.66 0.33 1.32 0.66 2 1 C0.52307692 7.52307692 0.52307692 7.52307692 -2.125 9.9375 C-2.74375 10.288125 -3.3625 10.63875 -4 11 C-2.7874262 7.27566618 -1.49140021 3.62197194 0 0 Z " fill="#1D0F06" transform="translate(345,445)"/>
<path d="M0 0 C-2.57089417 2.11180592 -4.63060567 3.66306057 -8 4 C-8.66 3.34 -9.32 2.68 -10 2 C-6.3558226 -0.4294516 -4.28758728 -0.16179575 0 0 Z " fill="#BB9B72" transform="translate(386,371)"/>
<path d="M0 0 C1.32 0.33 2.64 0.66 4 1 C-0.455 3.97 -0.455 3.97 -5 7 C-5 6.01 -5 5.02 -5 4 C-2.75 1.75 -2.75 1.75 0 0 Z " fill="#1D0D06" transform="translate(463,368)"/>
<path d="M0 0 C-1.63412443 1.70840281 -2.86906094 2.93453047 -5 4 C-7.125 3.5625 -7.125 3.5625 -9 3 C-9 2.34 -9 1.68 -9 1 C-5.57367167 -0.61798838 -3.61944899 -1.34053666 0 0 Z " fill="#1F1209" transform="translate(268,363)"/>
<path d="M0 0 C0.66 0.99 1.32 1.98 2 3 C1 4 1 4 -1.5625 4.0625 C-2.7690625 4.0315625 -2.7690625 4.0315625 -4 4 C-4 4.66 -4 5.32 -4 6 C-4.99 5.67 -5.98 5.34 -7 5 C-2.25 1.125 -2.25 1.125 0 0 Z " fill="#B6976C" transform="translate(249,361)"/>
<path d="M0 0 C0.66 0.33 1.32 0.66 2 1 C1.01 2.98 0.02 4.96 -1 7 C-1.99 6.67 -2.98 6.34 -4 6 C-4 5.01 -4 4.02 -4 3 C-3.34 3 -2.68 3 -2 3 C-2 2.34 -2 1.68 -2 1 C-1.34 0.67 -0.68 0.34 0 0 Z " fill="#180C08" transform="translate(248,343)"/>
<path d="M0 0 C0.33 0 0.66 0 1 0 C1 2.31 1 4.62 1 7 C0.01 7 -0.98 7 -2 7 C-2 7.66 -2 8.32 -2 9 C-2.66 9 -3.32 9 -4 9 C-2.80100302 5.9168649 -1.52299523 2.93720508 0 0 Z " fill="#B4936C" transform="translate(238,328)"/>
<path d="M0 0 C0.66 0 1.32 0 2 0 C1.75 2.375 1.75 2.375 1 5 C-1.0625 6.3125 -1.0625 6.3125 -3 7 C-3 3.47967572 -2.29648649 2.5614657 0 0 Z " fill="#B9976C" transform="translate(260,329)"/>
<path d="M0 0 C0.66 0.66 1.32 1.32 2 2 C1.34 2 0.68 2 0 2 C-0.33 2.99 -0.66 3.98 -1 5 C-2.31647119 5.69937532 -3.65022151 6.36729133 -5 7 C-5.33 7.66 -5.66 8.32 -6 9 C-6.66 9 -7.32 9 -8 9 C-6.4169423 4.7257442 -3.49431596 2.73468206 0 0 Z " fill="#BE9E74" transform="translate(386,277)"/>
<path d="M0 0 C1.32 0.33 2.64 0.66 4 1 C1.6875 3.5 1.6875 3.5 -1 6 C-1.99 6 -2.98 6 -4 6 C-3.67 5.01 -3.34 4.02 -3 3 C-2.34 3.33 -1.68 3.66 -1 4 C-0.67 2.68 -0.34 1.36 0 0 Z " fill="#BB996D" transform="translate(379,265)"/>
<path d="M0 0 C-1.279673 2.55934601 -2.24201036 2.6989233 -4.875 3.6875 C-5.57367188 3.95949219 -6.27234375 4.23148438 -6.9921875 4.51171875 C-9 5 -9 5 -12 4 C-10.56988027 3.13353333 -9.13059381 2.28218171 -7.6875 1.4375 C-6.48673828 0.72400391 -6.48673828 0.72400391 -5.26171875 -0.00390625 C-3 -1 -3 -1 0 0 Z " fill="#B7996F" transform="translate(412,242)"/>
<path d="M0 0 C0.66 0.99 1.32 1.98 2 3 C0.35 5.31 -1.3 7.62 -3 10 C-4 7 -4 7 -3.22265625 5.17578125 C-2.1484375 3.45052083 -1.07421875 1.72526042 0 0 Z " fill="#B6976D" transform="translate(541,235)"/>
<path d="M0 0 C4.67692308 1.47692308 4.67692308 1.47692308 6.3125 4.125 C6.539375 4.74375 6.76625 5.3625 7 6 C5.68 5.67 4.36 5.34 3 5 C3 4.34 3 3.68 3 3 C1.02 3 -0.96 3 -3 3 C-2.01 2.01 -1.02 1.02 0 0 Z " fill="#BB9465" transform="translate(192,473)"/>
<path d="M0 0 C1.32 0.66 2.64 1.32 4 2 C1.87219421 4.34058637 -0.11562221 5.70700306 -3 7 C-1.125 1.125 -1.125 1.125 0 0 Z " fill="#150D06" transform="translate(193,468)"/>
<path d="M0 0 C1.32 0.33 2.64 0.66 4 1 C3.34 1.66 2.68 2.32 2 3 C1.28591666 4.98356483 0.61382258 6.98315437 0 9 C-0.66 8.01 -1.32 7.02 -2 6 C-1.125 2.8125 -1.125 2.8125 0 0 Z " fill="#BA9563" transform="translate(309,384)"/>
<path d="M0 0 C2.15377564 2.62198774 3.40072174 4.64404172 4 8 C3.01 8 2.02 8 1 8 C0.26919734 6.02253397 -0.39421747 4.01927511 -1 2 C-0.67 1.34 -0.34 0.68 0 0 Z " fill="#201409" transform="translate(316,370)"/>
<path d="M0 0 C0.66 0.33 1.32 0.66 2 1 C0.90554162 1.86657116 -0.20097781 2.71792724 -1.3125 3.5625 C-1.92738281 4.03816406 -2.54226563 4.51382812 -3.17578125 5.00390625 C-3.77777344 5.33261719 -4.37976563 5.66132813 -5 6 C-5.99 5.67 -6.98 5.34 -8 5 C-5.45378681 2.99940392 -3.01962385 1.20784954 0 0 Z " fill="#28190D" transform="translate(394,367)"/>
<path d="M0 0 C0.66 1.32 1.32 2.64 2 4 C1.01 4.495 1.01 4.495 0 5 C-0.65555119 7.52733235 -0.65555119 7.52733235 -1 10 C-1.99 10.33 -2.98 10.66 -4 11 C-2.95902388 7.13351728 -1.96301592 3.50538557 0 0 Z " fill="#25150C" transform="translate(235,348)"/>
<path d="M0 0 C0.66 0 1.32 0 2 0 C2.33 1.98 2.66 3.96 3 6 C1.0625 5.6875 1.0625 5.6875 -1 5 C-1.33 4.01 -1.66 3.02 -2 2 C-1.34 1.34 -0.68 0.68 0 0 Z " fill="#C39E6E" transform="translate(465,314)"/>
<path d="M0 0 C-0.8125 1.9375 -0.8125 1.9375 -2 4 C-2.99 4.33 -3.98 4.66 -5 5 C-5.99 4.01 -6.98 3.02 -8 2 C-5.09399739 0.74335022 -3.20395416 0 0 0 Z " fill="#B39570" transform="translate(440,275)"/>
<path d="M0 0 C3.55780196 0.60990891 6.6828589 1.5783681 10 3 C10 3.33 10 3.66 10 4 C6.6875 4.25 6.6875 4.25 3 4 C1.0625 2 1.0625 2 0 0 Z " fill="#231209" transform="translate(453,265)"/>
<path d="M0 0 C-5.14285714 4.42857143 -5.14285714 4.42857143 -9 5 C-6.81610567 0.16423399 -5.20641855 -0.13701101 0 0 Z " fill="#BDA078" transform="translate(412,263)"/>
<path d="M0 0 C2.31 1.65 4.62 3.3 7 5 C6.67 5.66 6.34 6.32 6 7 C3.11562221 5.70700306 1.12780579 4.34058637 -1 2 C-0.67 1.34 -0.34 0.68 0 0 Z " fill="#B49568" transform="translate(318,419)"/>
<path d="M0 0 C2 3.75 2 3.75 2 6 C1.34 6 0.68 6 0 6 C-0.66 7.32 -1.32 8.64 -2 10 C-1.85950482 8.52031676 -1.71245174 7.04125484 -1.5625 5.5625 C-1.48128906 4.73878906 -1.40007812 3.91507812 -1.31640625 3.06640625 C-1 1 -1 1 0 0 Z " fill="#AD8E69" transform="translate(420,400)"/>
<path d="M0 0 C2 2 4 4 6 6 C5.67 6.99 5.34 7.98 5 9 C2.33264727 6.51047079 0.44253657 4.36591866 -1 1 C-0.67 0.67 -0.34 0.34 0 0 Z " fill="#1F1207" transform="translate(305,401)"/>
<path d="M0 0 C0.66 0.66 1.32 1.32 2 2 C-0.3125 3.5625 -0.3125 3.5625 -3 5 C-3.99 4.67 -4.98 4.34 -6 4 C-4 1 -4 1 -2 0.1875 C-1.34 0.125625 -0.68 0.06375 0 0 Z " fill="#1C0E06" transform="translate(449,378)"/>
<path d="M0 0 C0.99 0.33 1.98 0.66 3 1 C0.03 3.475 0.03 3.475 -3 6 C-3 4.68 -3 3.36 -3 2 C-2.01 1.34 -1.02 0.68 0 0 Z " fill="#B7956D" transform="translate(501,346)"/>
<path d="M0 0 C0.33 0 0.66 0 1 0 C1 2.31 1 4.62 1 7 C-0.98 7.99 -0.98 7.99 -3 9 C-3 7.68 -3 6.36 -3 5 C-2.34 4.67 -1.68 4.34 -1 4 C-0.34786708 1.97536745 -0.34786708 1.97536745 0 0 Z " fill="#BEA07E" transform="translate(428,340)"/>
<path d="M0 0 C0.33 0 0.66 0 1 0 C1 1.98 1 3.96 1 6 C0.34 6 -0.32 6 -1 6 C-1.33 6.99 -1.66 7.98 -2 9 C-2 8.34 -2 7.68 -2 7 C-2.66 6.67 -3.32 6.34 -4 6 C-2.69593116 3.98079663 -1.36176581 1.98075027 0 0 Z " fill="#B6986F" transform="translate(329,335)"/>
<path d="M0 0 C1.98 0.495 1.98 0.495 4 1 C3.67 2.32 3.34 3.64 3 5 C1.68 5 0.36 5 -1 5 C-0.67 3.35 -0.34 1.7 0 0 Z " fill="#C99D65" transform="translate(511,331)"/>
<path d="M0 0 C0.66 0.33 1.32 0.66 2 1 C1.2575 1.6496875 1.2575 1.6496875 0.5 2.3125 C-1.33218192 3.99740483 -1.33218192 3.99740483 -1 7 C-1.99 7 -2.98 7 -4 7 C-4 4 -4 4 -2 1.8125 C-1.34 1.214375 -0.68 0.61625 0 0 Z " fill="#C6A57A" transform="translate(354,306)"/>
<path d="M0 0 C2.09749995 2.35968744 2.96905704 3.54616994 3.1875 6.75 C3.125625 7.4925 3.06375 8.235 3 9 C2.01 9.495 2.01 9.495 1 10 C0.63883954 8.5225254 0.28624952 7.04295325 -0.0625 5.5625 C-0.25972656 4.73878906 -0.45695312 3.91507812 -0.66015625 3.06640625 C-0.82837891 2.04353516 -0.82837891 2.04353516 -1 1 C-0.67 0.67 -0.34 0.34 0 0 Z " fill="#B08E6B" transform="translate(471,290)"/>
<path d="M0 0 C0.33 0.66 0.66 1.32 1 2 C1.99 2.33 2.98 2.66 4 3 C0.1496895 5.56687367 -1.58569763 4.83288724 -6 4 C-5.38125 3.71125 -4.7625 3.4225 -4.125 3.125 C-1.86674235 2.06279958 -1.86674235 2.06279958 0 0 Z " fill="#CAA069" transform="translate(346,290)"/>
<path d="M0 0 C0.66 0.33 1.32 0.66 2 1 C1.19152271 2.16945792 0.37810888 3.33550461 -0.4375 4.5 C-0.88996094 5.1496875 -1.34242188 5.799375 -1.80859375 6.46875 C-2.20175781 6.9740625 -2.59492187 7.479375 -3 8 C-3.33 8 -3.66 8 -4 8 C-4.25 5.6875 -4.25 5.6875 -4 3 C-2 1.1875 -2 1.1875 0 0 Z " fill="#1A0E07" transform="translate(541,290)"/>
<path d="M0 0 C0 0.33 0 0.66 0 1 C-4.29 0.67 -8.58 0.34 -13 0 C-13 -0.33 -13 -0.66 -13 -1 C-7.96488101 -2.0070238 -4.76052962 -1.97387813 0 0 Z " fill="#28180D" transform="translate(343,291)"/>
<path d="M0 0 C0.66 0.99 1.32 1.98 2 3 C0.25 4.5625 0.25 4.5625 -2 6 C-4.25 5.6875 -4.25 5.6875 -6 5 C-4.02 3.35 -2.04 1.7 0 0 Z " fill="#B39869" transform="translate(377,284)"/>
<path d="M0 0 C0.66 0.66 1.32 1.32 2 2 C1.67 2.66 1.34 3.32 1 4 C0.34 4 -0.32 4 -1 4 C-1.103125 4.639375 -1.20625 5.27875 -1.3125 5.9375 C-1.539375 6.618125 -1.76625 7.29875 -2 8 C-2.99 8.33 -3.98 8.66 -5 9 C-3.7508258 5.54074837 -2.32472205 2.85306797 0 0 Z " fill="#1B0F04" transform="translate(544,235)"/>
<path d="M0 0 C-3.08888522 2.05925681 -3.70935927 2.2390374 -7.1875 2.125 C-9.0746875 2.063125 -9.0746875 2.063125 -11 2 C-7.39759636 -1.60240364 -4.69302684 -0.93860537 0 0 Z " fill="#B29364" transform="translate(451,225)"/>
<path d="M0 0 C0.598125 0.20625 1.19625 0.4125 1.8125 0.625 C1.4825 1.615 1.1525 2.605 0.8125 3.625 C-2.1875 3.625 -2.1875 3.625 -5.1875 1.625 C-2.1875 -0.375 -2.1875 -0.375 0 0 Z " fill="#CBA271" transform="translate(315.1875,477.375)"/>
<path d="M0 0 C0.99 0.33 1.98 0.66 3 1 C1.68 3.31 0.36 5.62 -1 8 C-2.2077558 4.37673261 -1.54311128 3.35853631 0 0 Z " fill="#C29E72" transform="translate(408,457)"/>
<path d="M0 0 C0.66 0.33 1.32 0.66 2 1 C2 2.65 2 4.3 2 6 C0.68 6.33 -0.64 6.66 -2 7 C-1.34 4.69 -0.68 2.38 0 0 Z " fill="#AB926E" transform="translate(316,393)"/>
<path d="M0 0 C0.33 0.99 0.66 1.98 1 3 C0.67 3.66 0.34 4.32 0 5 C-3.0625 5.625 -3.0625 5.625 -6 6 C-4 4 -2 2 0 0 Z " fill="#B99A73" transform="translate(493,347)"/>
<path d="M0 0 C2.97 0.495 2.97 0.495 6 1 C6 1.99 6 2.98 6 4 C4.35 4 2.7 4 1 4 C0.67 2.68 0.34 1.36 0 0 Z " fill="#C59E67" transform="translate(432,322)"/>
<path d="M0 0 C0.99 0.33 1.98 0.66 3 1 C0.69 2.65 -1.62 4.3 -4 6 C-4.33 5.01 -4.66 4.02 -5 3 C-2.6875 1.4375 -2.6875 1.4375 0 0 Z " fill="#1D0E05" transform="translate(378,281)"/>
<path d="M0 0 C0.99 0.66 1.98 1.32 3 2 C2.01 2.33 1.02 2.66 0 3 C0 3.66 0 4.32 0 5 C-1.65 5.33 -3.3 5.66 -5 6 C-4.34 5.67 -3.68 5.34 -3 5 C-2.30062468 3.68352881 -1.63270867 2.34977849 -1 1 C-0.67 0.67 -0.34 0.34 0 0 Z " fill="#1E0F09" transform="translate(350,281)"/>
<path d="M0 0 C0.99 0.33 1.98 0.66 3 1 C3.6875 3.0625 3.6875 3.0625 4 5 C2.35 5.66 0.7 6.32 -1 7 C-0.67 4.69 -0.34 2.38 0 0 Z " fill="#C3A176" transform="translate(432,278)"/>
<path d="M0 0 C1.32 0 2.64 0 4 0 C4 0.66 4 1.32 4 2 C4.99 2.33 5.98 2.66 7 3 C6.34 3 5.68 3 5 3 C4.67 3.66 4.34 4.32 4 5 C2.35 3.68 0.7 2.36 -1 1 C-0.67 0.67 -0.34 0.34 0 0 Z " fill="#BC9C73" transform="translate(464,267)"/>
<path d="M0 0 C0.33 1.32 0.66 2.64 1 4 C-0.98 4.33 -2.96 4.66 -5 5 C-5 4.01 -5 3.02 -5 2 C-2 0 -2 0 0 0 Z " fill="#AA8F6B" transform="translate(135,510)"/>
<path d="M0 0 C1.32 0.66 2.64 1.32 4 2 C2.02 2.99 0.04 3.98 -2 5 C-2.33 4.01 -2.66 3.02 -3 2 C-2.01 1.34 -1.02 0.68 0 0 Z " fill="#190C05" transform="translate(160,490)"/>
<path d="M0 0 C1.32 0 2.64 0 4 0 C3 3 3 3 -0.0625 4.6875 C-1.031875 5.120625 -2.00125 5.55375 -3 6 C-2 4 -1 2 0 0 Z " fill="#160904" transform="translate(169,484)"/>
<path d="M0 0 C0.8971875 0.5259375 0.8971875 0.5259375 1.8125 1.0625 C-1.59312852 1.84092938 -4.69515756 2.16228121 -8.1875 2.0625 C-3.10054348 -1.32880435 -3.10054348 -1.32880435 0 0 Z " fill="#A58860" transform="translate(378.1875,482.9375)"/>
<path d="M0 0 C0.33 0.66 0.66 1.32 1 2 C-0.32 3.65 -1.64 5.3 -3 7 C-3.99 6.67 -4.98 6.34 -6 6 C-4.02 4.02 -2.04 2.04 0 0 Z " fill="#2D1D10" transform="translate(332,467)"/>
<path d="M0 0 C0.99 0.33 1.98 0.66 3 1 C1.35 2.98 -0.3 4.96 -2 7 C-2.33 5.68 -2.66 4.36 -3 3 C-2.34 3 -1.68 3 -1 3 C-0.67 2.01 -0.34 1.02 0 0 Z " fill="#211309" transform="translate(396,465)"/>
<path d="M0 0 C0.66 0.66 1.32 1.32 2 2 C-0.31 3.32 -2.62 4.64 -5 6 C-4.1875 3.5625 -4.1875 3.5625 -3 1 C-2.01 0.67 -1.02 0.34 0 0 Z " fill="#180905" transform="translate(235,419)"/>
<path d="M0 0 C0.66 0.66 1.32 1.32 2 2 C0.68 2.33 -0.64 2.66 -2 3 C-2 3.66 -2 4.32 -2 5 C-3.65 5 -5.3 5 -7 5 C-2.25 1.125 -2.25 1.125 0 0 Z " fill="#B0976E" transform="translate(252,411)"/>
<path d="M0 0 C1.80411967 2.75924185 2.0127245 3.88972103 1.625 7.25 C1.41875 8.1575 1.2125 9.065 1 10 C0.34 9.34 -0.32 8.68 -1 8 C-0.96712417 5.27130593 -0.43602229 2.7033382 0 0 Z " fill="#9E825E" transform="translate(285,370)"/>
<path d="M0 0 C2.1875 0.3125 2.1875 0.3125 4 1 C2.35 2.32 0.7 3.64 -1 5 C-1.66 4.34 -2.32 3.68 -3 3 C-1.75 1.4375 -1.75 1.4375 0 0 Z " fill="#130601" transform="translate(508,328)"/>
<path d="M0 0 C1.98 0 3.96 0 6 0 C6.33 0.66 6.66 1.32 7 2 C4.69 2.33 2.38 2.66 0 3 C0 2.01 0 1.02 0 0 Z " fill="#C29A61" transform="translate(453,325)"/>
<path d="M0 0 C2.1875 0.3125 2.1875 0.3125 4 1 C2.35 2.32 0.7 3.64 -1 5 C-1.66 4.34 -2.32 3.68 -3 3 C-1.75 1.4375 -1.75 1.4375 0 0 Z " fill="#21170C" transform="translate(362,294)"/>
<path d="M0 0 C0.99 0.99 1.98 1.98 3 3 C1.35 4.65 -0.3 6.3 -2 8 C-2.33 7.34 -2.66 6.68 -3 6 C-2.06553465 3.96855359 -1.06775224 1.96466413 0 0 Z " fill="#1E1008" transform="translate(569,260)"/>
<path d="M0 0 C0.66 0.33 1.32 0.66 2 1 C-2.75 5 -2.75 5 -5 5 C-5 4.34 -5 3.68 -5 3 C-2.625 1.3125 -2.625 1.3125 0 0 Z M-6 5 C-5.67 5.66 -5.34 6.32 -5 7 C-5.66 6.67 -6.32 6.34 -7 6 C-6.67 5.67 -6.34 5.34 -6 5 Z " fill="#160B06" transform="translate(411,248)"/>
<path d="M0 0 C0.66 0.33 1.32 0.66 2 1 C0.125 5.75 0.125 5.75 -1 8 C-1.66 8 -2.32 8 -3 8 C-1.125 2.25 -1.125 2.25 0 0 Z " fill="#2C1C0E" transform="translate(578,242)"/>
<path d="M0 0 C0.66 0.33 1.32 0.66 2 1 C0.875 2.5 0.875 2.5 -1 4 C-4.1875 4.1875 -4.1875 4.1875 -7 4 C-4.61426621 2.10786631 -2.92824652 0.97608217 0 0 Z " fill="#1E0E06" transform="translate(442,233)"/>
</svg>
